<?xml version="1.0" encoding="UTF-8"?>
<svg version="1.1" xmlns="http://www.w3.org/2000/svg" width="335" height="335">
<path d="M0 0 C110.55 0 221.1 0 335 0 C335 110.55 335 221.1 335 335 C224.45 335 113.9 335 0 335 C0 224.45 0 113.9 0 0 Z " fill="#EFFAFC" transform="translate(0,0)"/>
<path d="M0 0 C0 55.11 0 110.22 0 167 C-110.55 167 -221.1 167 -335 167 C-335 133.67 -335 100.34 -335 66 C-331.7 66.33 -328.4 66.66 -325 67 C-325 67.66 -325 68.32 -325 69 C-324.05898438 69.13277344 -323.11796875 69.26554687 -322.1484375 69.40234375 C-320.90320313 69.57894531 -319.65796875 69.75554687 -318.375 69.9375 C-317.14523437 70.11152344 -315.91546875 70.28554687 -314.6484375 70.46484375 C-311.42443816 70.93774301 -308.21187824 71.45151002 -305 72 C-305 72.66 -305 73.32 -305 74 C-303.93458984 74.07347656 -303.93458984 74.07347656 -302.84765625 74.1484375 C-301.92855469 74.22320312 -301.00945312 74.29796875 -300.0625 74.375 C-299.14597656 74.44460937 -298.22945313 74.51421875 -297.28515625 74.5859375 C-296.15400391 74.79089844 -296.15400391 74.79089844 -295 75 C-294.67 75.66 -294.34 76.32 -294 77 C-294.33 77.66 -294.66 78.32 -295 79 C-299.6343372 80.44823037 -306.55859641 81.22070179 -311 79 C-311 79.99 -311 80.98 -311 82 C-307.68727224 81.85908107 -304.37488029 81.71134606 -301.0625 81.5625 C-300.13630859 81.52318359 -299.21011719 81.48386719 -298.25585938 81.44335938 C-292.46379244 81.17915983 -286.75766167 80.68039895 -281 80 C-280.34 80 -279.68 80 -279 80 C-279 80.66 -279 81.32 -279 82 C-278.16082031 81.7834375 -278.16082031 81.7834375 -277.3046875 81.5625 C-270.8860721 80.0765183 -264.87434072 79.85621059 -258.296875 80.02734375 C-255.08280123 80.00068674 -252.14932346 79.61554959 -249 79 C-248.67 79.66 -248.34 80.32 -248 81 C-247.34 80.34 -246.68 79.68 -246 79 C-243.50499222 78.88021625 -241.11416837 78.85971349 -238.625 78.9375 C-234.6011487 79.04156512 -230.89999603 79.12781342 -227 78 C-222.45884527 77.85583636 -218.42986659 77.89253335 -214 79 C-209.21680781 74.08753234 -207.6984278 69.56017736 -206 63 C-205.34370484 60.99657266 -204.68239354 58.99468882 -204 57 C-204.99 57 -205.98 57 -207 57 C-207.495 55.02 -207.495 55.02 -208 53 C-206.35 53.33 -204.7 53.66 -203 54 C-203 54.66 -203 55.32 -203 56 C-201.02 56 -199.04 56 -197 56 C-197.0825 55.29875 -197.165 54.5975 -197.25 53.875 C-196.91433793 50.01488624 -195.32213141 48.05194414 -193 45 C-192.566875 44.401875 -192.13375 43.80375 -191.6875 43.1875 C-188.71554173 41.09612196 -186.60451385 40.87781309 -183 41 C-176.39280864 46.5059928 -173.19780051 55.17579579 -170 63 C-170 63.66 -170 64.32 -170 65 C-169.34 65 -168.68 65 -168 65 C-167.01 68.465 -167.01 68.465 -166 72 C-165.34 72 -164.68 72 -164 72 C-164 72.66 -164 73.32 -164 74 C-163.03900391 74.18175781 -163.03900391 74.18175781 -162.05859375 74.3671875 C-156.95071067 75.35679227 -151.97749731 76.48510951 -147 78 C-147 78.66 -147 79.32 -147 80 C-144.36 80.33 -141.72 80.66 -139 81 C-139 80.01 -139 79.02 -139 78 C-139.99 78 -140.98 78 -142 78 C-141.67 77.01 -141.34 76.02 -141 75 C-140.154375 75.061875 -139.30875 75.12375 -138.4375 75.1875 C-130.77491897 74.76954103 -126.93107934 71.3535843 -121.89453125 65.9375 C-117.42027867 61.36176953 -114.63070484 60.6332886 -108.33984375 60.40625 C-105.53448229 59.91917556 -104.90490121 59.02363488 -103 57 C-100.15517148 55.99525564 -97.43323894 55.8919301 -94.4375 55.75 C-90.65199106 55.40140828 -90.65199106 55.40140828 -88 52.625 C-86.68318014 49.16834786 -85.87708442 46.49785068 -85.9375 42.8125 C-85.9684375 40.9253125 -85.9684375 40.9253125 -86 39 C-85.34 38.67 -84.68 38.34 -84 38 C-83.67 40.64 -83.34 43.28 -83 46 C-80.48916886 44.74458443 -80.12874554 43.49936512 -79 41 C-79.020625 41.94875 -79.04125 42.8975 -79.0625 43.875 C-79.22551826 46.90666283 -79.22551826 46.90666283 -78 49 C-78.33 49.66 -78.66 50.32 -79 51 C-77.68 51 -76.36 51 -75 51 C-74.34 47.7 -73.68 44.4 -73 41 C-71.35 41.33 -69.7 41.66 -68 42 C-68.33 43.98 -68.66 45.96 -69 48 C-69.99 48 -70.98 48 -72 48 C-71.34 48.99 -70.68 49.98 -70 51 C-69.01 51 -68.02 51 -67 51 C-66.67 50.34 -66.34 49.68 -66 49 C-64.33084398 48.51770617 -62.65964459 48.04128109 -60.97851562 47.60253906 C-57.69920257 46.60385389 -54.76663283 44.98125904 -51.75 43.375 C-45.40178571 40 -45.40178571 40 -42 40 C-42 39.34 -42 38.68 -42 38 C-38.14918723 34.5342685 -34.01463074 31.48207766 -29.83203125 28.4296875 C-27.9622853 27.04053298 -27.9622853 27.04053298 -26.38671875 25.3203125 C-25 24 -25 24 -23 24 C-22.6596875 23.13375 -22.6596875 23.13375 -22.3125 22.25 C-20.65238361 19.40408619 -18.60812043 18.00158079 -16 16 C-13.71830265 13.77262878 -11.48514077 11.52107713 -9.3125 9.1875 C-8 8 -8 8 -6 8 C-6 7.01 -6 6.02 -6 5 C-1.46511628 0 -1.46511628 0 0 0 Z " fill="#85CCE5" transform="translate(335,168)"/>
<path d="M0 0 C0.12375 0.5775 0.2475 1.155 0.375 1.75 C1.00648824 4.02335767 1.88858191 5.9253529 3 8 C3.66 6.35 4.32 4.7 5 3 C5.33 3 5.66 3 6 3 C5.979375 3.94875 5.95875 4.8975 5.9375 5.875 C5.77448174 8.90666283 5.77448174 8.90666283 7 11 C0.49572441 21.35866113 0.49572441 21.35866113 -4.66015625 22.68359375 C-6.59229842 23.01198155 -8.53176487 23.30053507 -10.4765625 23.54296875 C-13.2356744 23.87000672 -13.2356744 23.87000672 -16 26 C-17.36427319 26.32052201 -18.74185314 26.58693304 -20.125 26.8125 C-25.85944389 27.9931208 -31.47866474 30.43644142 -35.6328125 34.66015625 C-37 36 -37 36 -39 36 C-39.33 38.64 -39.66 41.28 -40 44 C-40.66 44 -41.32 44 -42 44 C-42 43.34 -42 42.68 -42 42 C-43.32 42 -44.64 42 -46 42 C-46 42.66 -46 43.32 -46 44 C-44.97519531 44.13277344 -43.95039063 44.26554687 -42.89453125 44.40234375 C-41.5338426 44.58064088 -40.17316615 44.75903123 -38.8125 44.9375 C-38.13896484 45.02451172 -37.46542969 45.11152344 -36.77148438 45.20117188 C-33.14918834 45.67825477 -29.57196415 46.23012035 -26 47 C-26 48.32 -26 49.64 -26 51 C-26.99 51.495 -26.99 51.495 -28 52 C-27.01 52.99 -26.02 53.98 -25 55 C-27.3786646 58.39809229 -29.70585238 59.39885432 -33.625 60.1875 C-44.45762893 61.78136337 -55.3220133 62.04149483 -66.25390625 61.98828125 C-66.98462341 61.98523987 -67.71534058 61.98219849 -68.46820068 61.97906494 C-72.16686874 61.96118234 -75.86466235 61.92890311 -79.56298828 61.87548828 C-80.95214651 61.86338296 -82.34130662 61.85149263 -83.73046875 61.83984375 C-84.96176514 61.82300537 -86.19306152 61.80616699 -87.46166992 61.78881836 C-91.23615871 62.01409489 -94.38997084 62.91186971 -98 64 C-100.57958984 64.28710938 -100.57958984 64.28710938 -102.9609375 64.34375 C-104.28738281 64.38822266 -104.28738281 64.38822266 -105.640625 64.43359375 C-106.54296875 64.45550781 -107.4453125 64.47742188 -108.375 64.5 C-119.7638105 64.25931613 -119.7638105 64.25931613 -129.75146484 68.57226562 C-130.16348145 69.04341797 -130.57549805 69.51457031 -131 70 C-129.53191895 70.03758423 -129.53191895 70.03758423 -128.03417969 70.07592773 C-124.39619296 70.17023983 -120.75838657 70.27040203 -117.12060547 70.37231445 C-115.54740626 70.41557338 -113.97416283 70.45725474 -112.40087891 70.49731445 C-110.13690885 70.55523662 -107.87315949 70.61886714 -105.609375 70.68359375 C-104.90818542 70.70030624 -104.20699585 70.71701874 -103.48455811 70.73423767 C-100.19766179 70.83351022 -97.14857995 71.00812672 -94 72 C-94.71428571 80.57142857 -94.71428571 80.57142857 -98 84 C-98.66 83.67 -99.32 83.34 -100 83 C-99.70703125 80.94921875 -99.4140625 78.8984375 -99.12109375 76.84765625 C-99.08113281 76.23792969 -99.04117188 75.62820313 -99 75 C-100.06897901 73.70439537 -100.06897901 73.70439537 -102.58203125 73.90234375 C-103.64808594 73.91394531 -104.71414062 73.92554688 -105.8125 73.9375 C-106.87082031 73.94652344 -107.92914063 73.95554687 -109.01953125 73.96484375 C-110.49486328 73.98224609 -110.49486328 73.98224609 -112 74 C-113.32 74 -114.64 74 -116 74 C-118.75 75.08333333 -118.75 75.08333333 -121 77 C-121.88658466 79.59122743 -121.88658466 79.59122743 -122 82 C-123.155 82.0825 -124.31 82.165 -125.5 82.25 C-130.22127498 82.81486683 -133.9106739 84.66168853 -138 87 C-138.33 86.34 -138.66 85.68 -139 85 C-139.66 85 -140.32 85 -141 85 C-139 79 -139 79 -137 73 C-150.70719411 72.89342493 -164.33207359 72.85930868 -178 74 C-177.505 73.01 -177.505 73.01 -177 72 C-169.3245824 70.32953216 -161.24664927 70.66081671 -153.42773438 70.48242188 C-152.30560547 70.44826172 -151.18347656 70.41410156 -150.02734375 70.37890625 C-148.50741821 70.34132202 -148.50741821 70.34132202 -146.95678711 70.30297852 C-142.33602012 69.82949393 -138.85729055 68.57152703 -135 66 C-137.97 65.505 -137.97 65.505 -141 65 C-140.01 64.67 -139.02 64.34 -138 64 C-138 62.02 -138 60.04 -138 58 C-136.02 57.34 -134.04 56.68 -132 56 C-131.505 59.465 -131.505 59.465 -131 63 C-126.4459563 63.21181599 -122.31117324 62.7678024 -117.8125 62 C-111.49096296 60.95863311 -105.39284361 60.79266453 -99 61 C-98.67 60.01 -98.34 59.02 -98 58 C-97.34 58 -96.68 58 -96 58 C-95.67 51.73 -95.34 45.46 -95 39 C-94.67 39 -94.34 39 -94 39 C-93.505 42.96 -93.505 42.96 -93 47 C-91.35920758 45.35920758 -91.39887658 43.22231235 -91 41 C-89.02 40.67 -87.04 40.34 -85 40 C-85 38.02 -85 36.04 -85 34 C-86.98 33.505 -86.98 33.505 -89 33 C-89.33 27.39 -89.66 21.78 -90 16 C-87.77174356 18.22825644 -87.30760631 19.65761628 -86.375 22.625 C-86.11460937 23.44226563 -85.85421875 24.25953125 -85.5859375 25.1015625 C-85.39257812 25.72804687 -85.19921875 26.35453125 -85 27 C-84.34 27 -83.68 27 -83 27 C-82.01 30.465 -82.01 30.465 -81 34 C-80.34 34 -79.68 34 -79 34 C-79 34.66 -79 35.32 -79 36 C-78.35933594 36.12117188 -77.71867187 36.24234375 -77.05859375 36.3671875 C-71.95071067 37.35679227 -66.97749731 38.48510951 -62 40 C-62 40.66 -62 41.32 -62 42 C-59.36 42.33 -56.72 42.66 -54 43 C-54 42.01 -54 41.02 -54 40 C-54.99 40 -55.98 40 -57 40 C-56.67 39.01 -56.34 38.02 -56 37 C-54.7315625 37.0928125 -54.7315625 37.0928125 -53.4375 37.1875 C-45.77491897 36.76954103 -41.93107934 33.3535843 -36.89453125 27.9375 C-32.42027867 23.36176953 -29.63070484 22.6332886 -23.33984375 22.40625 C-20.53448229 21.91917556 -19.90490121 21.02363488 -18 19 C-15.15517148 17.99525564 -12.43323894 17.8919301 -9.4375 17.75 C-5.65199106 17.40140828 -5.65199106 17.40140828 -3 14.625 C-1.68333584 11.16875658 -0.89133022 8.55618866 -1 4.875 C-1 1 -1 1 0 0 Z " fill="#95CFE3" transform="translate(250,206)"/>
<path d="M0 0 C1.6328125 1.0234375 1.6328125 1.0234375 3 3 C3.29932215 5.88170931 3.41872379 8.49894635 3.375 11.375 C3.38660156 12.13039062 3.39820313 12.88578125 3.41015625 13.6640625 C3.38616151 18.23905902 2.9693888 21.29725125 0 25 C-2.1875 25.8125 -2.1875 25.8125 -4 26 C-3.505 27.485 -3.505 27.485 -3 29 C1.47883696 28.55296014 1.47883696 28.55296014 5 26 C5.99 25.67 6.98 25.34 8 25 C8.66 24.34 9.32 23.68 10 23 C10 23.66 10 24.32 10 25 C11.32 24.67 12.64 24.34 14 24 C14 24.66 14 25.32 14 26 C14.680625 25.525625 15.36125 25.05125 16.0625 24.5625 C19.41841956 22.7774364 22.24161481 22.36846914 26 22 C25.505 23.485 25.505 23.485 25 25 C23.68 25 22.36 25 21 25 C21 26.010625 21 27.02125 21 28.0625 C20.50557944 31.82770272 18.94826932 33.25063284 16.0625 35.625 C15.35222656 36.15351563 14.64195312 36.68203125 13.91015625 37.2265625 C11.67543084 39.30133824 10.93583064 41.12881279 10 44 C8.02966797 44.18175781 8.02966797 44.18175781 6.01953125 44.3671875 C4.28381613 44.53606789 2.54814108 44.70536039 0.8125 44.875 C-0.05181641 44.95363281 -0.91613281 45.03226562 -1.80664062 45.11328125 C-6.19046771 45.54998433 -9.99095497 46.02452854 -14 48 C-14 47.34 -14 46.68 -14 46 C-17.03928998 47.93545466 -17.03928998 47.93545466 -18.75 51 C-19.06201737 53.16021153 -19.06201737 53.16021153 -19 56 C-20.62959158 58.45334117 -22.5709116 60.34021075 -25 62 C-28.875 62.375 -28.875 62.375 -32 62 C-32 61.34 -32 60.68 -32 60 C-33.98 60.66 -35.96 61.32 -38 62 C-38 61.01 -38 60.02 -38 59 C-44.62932129 58.00896939 -51.2817551 57.22831904 -57.9375 56.4375 C-59.67870117 56.22963867 -59.67870117 56.22963867 -61.45507812 56.01757812 C-64.30330054 55.67766681 -67.151609 55.33849521 -70 55 C-70 53.02 -70 51.04 -70 49 C-59.11 48.67 -48.22 48.34 -37 48 C-41.0433647 45.97831765 -43.32129345 45.64072239 -47.75 45.375 C-48.92046875 45.30023438 -50.0909375 45.22546875 -51.296875 45.1484375 C-52.18890625 45.09945312 -53.0809375 45.05046875 -54 45 C-51.50109523 42.50109523 -50.01347764 42.48287362 -46.5625 41.9375 C-43.56431552 41.45443699 -40.88653818 40.96217939 -38 40 C-38 39.34 -38 38.68 -38 38 C-32.95859836 35.18467181 -28.77378925 33.4811491 -23 33 C-22.855625 32.401875 -22.71125 31.80375 -22.5625 31.1875 C-22.1127561 29.43849596 -21.57107659 27.71322977 -21 26 C-22.11375 26.020625 -23.2275 26.04125 -24.375 26.0625 C-28 26 -28 26 -30 25 C-30 25.66 -30 26.32 -30 27 C-32.29045368 27.22127098 -34.58244764 27.4266504 -36.875 27.625 C-38.78925781 27.79902344 -38.78925781 27.79902344 -40.7421875 27.9765625 C-41.81726563 27.98429687 -42.89234375 27.99203125 -44 28 C-44.66 27.34 -45.32 26.68 -46 26 C-44.04016674 20.7084502 -39.99596215 17.96421988 -35.11328125 15.60546875 C-27.24379514 12.2466598 -27.24379514 12.2466598 -23.22265625 11.44921875 C-20.52944422 10.90489646 -19.86711667 9.9449132 -18 8 C-17.21625 7.731875 -16.4325 7.46375 -15.625 7.1875 C-12.93774576 5.97183737 -12.14855093 5.18114877 -10.375 2.9375 C-7.0579248 -1.16519827 -4.88534846 -1.46560454 0 0 Z " fill="#2F8DB1" transform="translate(262,223)"/>
<path d="M0 0 C1.6328125 1.0234375 1.6328125 1.0234375 3 3 C3.29932215 5.88170931 3.41872379 8.49894635 3.375 11.375 C3.38660156 12.13039062 3.39820313 12.88578125 3.41015625 13.6640625 C3.38616151 18.23905902 2.9693888 21.29725125 0 25 C-2.1875 25.8125 -2.1875 25.8125 -4 26 C-3.505 27.485 -3.505 27.485 -3 29 C1.47883696 28.55296014 1.47883696 28.55296014 5 26 C5.99 25.67 6.98 25.34 8 25 C8.66 24.34 9.32 23.68 10 23 C10 23.66 10 24.32 10 25 C11.32 24.67 12.64 24.34 14 24 C13.67 25.32 13.34 26.64 13 28 C10.03 28.495 10.03 28.495 7 29 C7 29.66 7 30.32 7 31 C-2.58724058 34.11369944 -12.11407339 36.9680197 -22 39 C-23.02335449 39.21317871 -23.02335449 39.21317871 -24.06738281 39.43066406 C-26.25120361 39.88144829 -28.43733692 40.31827621 -30.625 40.75 C-31.31271484 40.89002441 -32.00042969 41.03004883 -32.70898438 41.17431641 C-35.96391325 41.79457383 -37.79904506 42.06698498 -41 41 C-39.515 40.505 -39.515 40.505 -38 40 C-38 39.34 -38 38.68 -38 38 C-32.95859836 35.18467181 -28.77378925 33.4811491 -23 33 C-22.855625 32.401875 -22.71125 31.80375 -22.5625 31.1875 C-22.1127561 29.43849596 -21.57107659 27.71322977 -21 26 C-22.11375 26.020625 -23.2275 26.04125 -24.375 26.0625 C-28 26 -28 26 -30 25 C-30 25.66 -30 26.32 -30 27 C-32.29045368 27.22127098 -34.58244764 27.4266504 -36.875 27.625 C-38.78925781 27.79902344 -38.78925781 27.79902344 -40.7421875 27.9765625 C-41.81726563 27.98429687 -42.89234375 27.99203125 -44 28 C-44.66 27.34 -45.32 26.68 -46 26 C-44.04016674 20.7084502 -39.99596215 17.96421988 -35.11328125 15.60546875 C-27.24379514 12.2466598 -27.24379514 12.2466598 -23.22265625 11.44921875 C-20.52944422 10.90489646 -19.86711667 9.9449132 -18 8 C-17.21625 7.731875 -16.4325 7.46375 -15.625 7.1875 C-12.93774576 5.97183737 -12.14855093 5.18114877 -10.375 2.9375 C-7.0579248 -1.16519827 -4.88534846 -1.46560454 0 0 Z " fill="#41AACB" transform="translate(262,223)"/>
<path d="M0 0 C0.928125 0.03544922 1.85625 0.07089844 2.8125 0.10742188 C7.36958756 0.32613596 11.24137201 0.55092013 15.375 2.6875 C15.045 3.3475 14.715 4.0075 14.375 4.6875 C3.485 4.6875 -7.405 4.6875 -18.625 4.6875 C-18.625 6.6675 -18.625 8.6475 -18.625 10.6875 C-18.07714844 10.66429687 -17.52929688 10.64109375 -16.96484375 10.6171875 C-10.20266559 10.46325174 -3.71363117 11.25458509 2.95703125 12.25 C5.8216302 12.61666867 8.49499007 12.77527173 11.375 12.6875 C11.375 13.3475 11.375 14.0075 11.375 14.6875 C12.035 14.6875 12.695 14.6875 13.375 14.6875 C13.87 15.6775 13.87 15.6775 14.375 16.6875 C16.025 16.3575 17.675 16.0275 19.375 15.6875 C19.375 16.3475 19.375 17.0075 19.375 17.6875 C20.426875 17.625625 21.47875 17.56375 22.5625 17.5 C29.73406109 17.48721647 36.90314001 19.48314666 43.640625 21.8203125 C46.60074345 22.75909292 47.49923553 22.45437053 50.375 21.6875 C52.625 22.625 52.625 22.625 54.375 23.6875 C54.375 24.6775 54.375 25.6675 54.375 26.6875 C56.685 26.0275 58.995 25.3675 61.375 24.6875 C61.87 28.1525 61.87 28.1525 62.375 31.6875 C57.32791338 34.13218258 53.0079199 35.22329314 47.375 35.4375 C46.64676025 35.47351318 45.91852051 35.50952637 45.16821289 35.54663086 C37.85910791 35.83823641 30.65232436 35.3760387 23.375 34.6875 C22.11835022 31.78149739 21.375 29.89145416 21.375 26.6875 C20.385 26.6875 19.395 26.6875 18.375 26.6875 C18.375 26.0275 18.375 25.3675 18.375 24.6875 C19.365 24.6875 20.355 24.6875 21.375 24.6875 C21.87 23.2025 21.87 23.2025 22.375 21.6875 C23.365 21.3575 24.355 21.0275 25.375 20.6875 C23.79273035 20.49122609 22.20910729 20.30584462 20.625 20.125 C19.74328125 20.02058594 18.8615625 19.91617187 17.953125 19.80859375 C15.49067549 19.69293324 13.70961936 19.95111305 11.375 20.6875 C10.385 18.7075 10.385 18.7075 9.375 16.6875 C8.385 17.3475 7.395 18.0075 6.375 18.6875 C6.375 18.0275 6.375 17.3675 6.375 16.6875 C5.09625 16.666875 3.8175 16.64625 2.5 16.625 C1.78070313 16.61339844 1.06140625 16.60179687 0.3203125 16.58984375 C-1.70685404 16.56100758 -1.70685404 16.56100758 -3.625 17.6875 C-4.285 17.378125 -4.945 17.06875 -5.625 16.75 C-8.53610817 15.71898252 -9.93813584 15.62901724 -12.9375 15.75 C-20.31382472 15.94028455 -27.44097951 14.1849137 -34.625 12.6875 C-34.625 12.0275 -34.625 11.3675 -34.625 10.6875 C-41.555 10.3575 -48.485 10.0275 -55.625 9.6875 C-55.955 8.3675 -56.285 7.0475 -56.625 5.6875 C-51.73411028 1.69089171 -46.62745316 2.30395757 -40.63671875 2.39453125 C-39.57838333 2.39877609 -38.52004791 2.40302094 -37.42964172 2.40739441 C-34.05699988 2.42415638 -30.68496055 2.46180488 -27.3125 2.5 C-25.0227951 2.51505001 -22.73308082 2.52873786 -20.44335938 2.54101562 C-14.83700824 2.57405193 -9.2311062 2.62581796 -3.625 2.6875 C-10.555 2.1925 -10.555 2.1925 -17.625 1.6875 C-17.625 1.3575 -17.625 1.0275 -17.625 0.6875 C-11.66819361 -0.40376068 -6.03477139 -0.30850022 0 0 Z " fill="#40ABDB" transform="translate(210.625,267.3125)"/>
<path d="M0 0 C9.05908185 -0.38886361 17.73028191 -0.13485905 26 4 C26.61875 3.814375 27.2375 3.62875 27.875 3.4375 C30.58235674 2.88010302 31.68865109 3.59668102 34 5 C34 5.99 34 6.98 34 8 C36.31 7.34 38.62 6.68 41 6 C41.495 9.465 41.495 9.465 42 13 C36.95291338 15.44468258 32.6329199 16.53579314 27 16.75 C26.27176025 16.78601318 25.54352051 16.82202637 24.79321289 16.85913086 C17.48410791 17.15073641 10.27732436 16.6885387 3 16 C1.74335022 13.09399739 1 11.20395416 1 8 C0.01 8 -0.98 8 -2 8 C-2 7.34 -2 6.68 -2 6 C-1.01 6 -0.02 6 1 6 C1.33 5.01 1.66 4.02 2 3 C2.99 2.67 3.98 2.34 5 2 C3.35 1.67 1.7 1.34 0 1 C0 0.67 0 0.34 0 0 Z " fill="#59BEE9" transform="translate(231,286)"/>
<path d="M0 0 C1.875 1.125 1.875 1.125 3 3 C2.6875 6.6875 2.6875 6.6875 2 10 C1.01 9.67 0.02 9.34 -1 9 C-1 7.02 -1 5.04 -1 3 C-8.63614092 4.37874767 -12.03932237 7.74948604 -16.56640625 13.91796875 C-17.03949219 14.60503906 -17.51257813 15.29210937 -18 16 C-17.67 16.66 -17.34 17.32 -17 18 C-17.28718326 19.6752357 -17.63128912 21.34080104 -18 23 C-18.12375 24.134375 -18.2475 25.26875 -18.375 26.4375 C-19.02042669 30.11643215 -20.18204278 32.75929364 -22 36 C-22.99 36 -23.98 36 -25 36 C-25 36.99 -25 37.98 -25 39 C-27.10170656 39.53067341 -29.20647598 40.04922857 -31.3125 40.5625 C-32.48425781 40.85253906 -33.65601563 41.14257812 -34.86328125 41.44140625 C-38 42 -38 42 -41 41 C-39.515 40.505 -39.515 40.505 -38 40 C-38 39.34 -38 38.68 -38 38 C-32.95859836 35.18467181 -28.77378925 33.4811491 -23 33 C-22.855625 32.401875 -22.71125 31.80375 -22.5625 31.1875 C-22.1127561 29.43849596 -21.57107659 27.71322977 -21 26 C-22.11375 26.020625 -23.2275 26.04125 -24.375 26.0625 C-28 26 -28 26 -30 25 C-30 25.66 -30 26.32 -30 27 C-32.29045368 27.22127098 -34.58244764 27.4266504 -36.875 27.625 C-38.78925781 27.79902344 -38.78925781 27.79902344 -40.7421875 27.9765625 C-41.81726563 27.98429687 -42.89234375 27.99203125 -44 28 C-44.66 27.34 -45.32 26.68 -46 26 C-44.04016674 20.7084502 -39.99596215 17.96421988 -35.11328125 15.60546875 C-27.24379514 12.2466598 -27.24379514 12.2466598 -23.22265625 11.44921875 C-20.52944422 10.90489646 -19.86711667 9.9449132 -18 8 C-17.21625 7.731875 -16.4325 7.46375 -15.625 7.1875 C-12.93774576 5.97183737 -12.14855093 5.18114877 -10.375 2.9375 C-7.0579248 -1.16519827 -4.88534846 -1.46560454 0 0 Z " fill="#5AA9C5" transform="translate(262,223)"/>
<path d="M0 0 C0.66 0.33 1.32 0.66 2 1 C-3.16923077 6.78461538 -3.16923077 6.78461538 -7.375 7.875 C-8.674375 7.936875 -8.674375 7.936875 -10 8 C-10.33 8.99 -10.66 9.98 -11 11 C-13.29296875 11.84375 -13.29296875 11.84375 -16.1875 12.5 C-24.00950759 14.46811804 -29.10646306 17.61212155 -35 23 C-34.67 23.99 -34.34 24.98 -34 26 C-29.38 26 -24.76 26 -20 26 C-20 25.34 -20 24.68 -20 24 C-16.7 24 -13.4 24 -10 24 C-11.91716285 31.30918336 -11.91716285 31.30918336 -14.76953125 33.12890625 C-16.82777918 33.88057997 -18.87843764 34.45549255 -21 35 C-22.051875 35.433125 -23.10375 35.86625 -24.1875 36.3125 C-27.69554186 37.17002134 -28.72398038 36.41464484 -32 35 C-35.32260509 34.52387939 -38.65324366 34.24694513 -42 34 C-42 33.67 -42 33.34 -42 33 C-37.38 33 -32.76 33 -28 33 C-28 31.68 -28 30.36 -28 29 C-29.299375 28.855625 -30.59875 28.71125 -31.9375 28.5625 C-33.15953125 28.42521484 -33.15953125 28.42521484 -34.40625 28.28515625 C-36.11371948 28.09743747 -37.82206985 27.91753929 -39.53125 27.74609375 C-40.3253125 27.66488281 -41.119375 27.58367187 -41.9375 27.5 C-42.66839844 27.4278125 -43.39929688 27.355625 -44.15234375 27.28125 C-46 27 -46 27 -48 26 C-48 25.34 -48 24.68 -48 24 C-46.68 24 -45.36 24 -44 24 C-44 24.66 -44 25.32 -44 26 C-43.34 26 -42.68 26 -42 26 C-42.0928125 24.2675 -42.0928125 24.2675 -42.1875 22.5 C-41.80214707 19.16817929 -41.1252324 18.12000567 -38.66015625 15.7578125 C-32.02561821 10.89545307 -26.20599563 8.11970799 -18.18359375 6.5625 C-15.97994881 6.07962813 -15.97994881 6.07962813 -14.04296875 5 C-10.91772516 3.47024406 -7.65203372 3.12912133 -4.2421875 2.5625 C-1.81519705 2.15772553 -1.81519705 2.15772553 0 0 Z " fill="#7EBCD2" transform="translate(252,224)"/>
<path d="M0 0 C-0.99 0 -1.98 0 -3 0 C-3 0.66 -3 1.32 -3 2 C-3.99 2.495 -3.99 2.495 -5 3 C-5.65555119 5.52733235 -5.65555119 5.52733235 -6 8 C-5.16855469 7.65775391 -5.16855469 7.65775391 -4.3203125 7.30859375 C-3.59585938 7.02113281 -2.87140625 6.73367187 -2.125 6.4375 C-1.40570313 6.14746094 -0.68640625 5.85742188 0.0546875 5.55859375 C2 5 2 5 4 6 C6.25287983 10.18279436 6.24027221 14.1794437 6.125 18.8125 C6.11597656 19.50537109 6.10695312 20.19824219 6.09765625 20.91210938 C6.07426157 22.60822395 6.03839641 24.30415871 6 26 C4.35 26 2.7 26 1 26 C0.67 25.01 0.34 24.02 0 23 C-1.98 22.67 -3.96 22.34 -6 22 C-6 21.34 -6 20.68 -6 20 C-6.86625 19.71125 -7.7325 19.4225 -8.625 19.125 C-11.75 18.08333333 -14.875 17.04166667 -18 16 C-18.1546875 17.7634375 -18.1546875 17.7634375 -18.3125 19.5625 C-19.37513442 27.80155594 -22.85697128 32.75276127 -29.3125 37.8125 C-30.1478125 38.4003125 -30.1478125 38.4003125 -31 39 C-29.8709359 36.55369444 -28.64627063 34.50934313 -27.0625 32.3125 C-24.85393104 28.7654044 -23.81410786 25.65340833 -22.75 21.625 C-22.41484375 20.37976563 -22.0796875 19.13453125 -21.734375 17.8515625 C-21.37085938 16.44003906 -21.37085938 16.44003906 -21 15 C-21.99 15 -22.98 15 -24 15 C-24.33 13.68 -24.66 12.36 -25 11 C-23.35 11.33 -21.7 11.66 -20 12 C-20 12.66 -20 13.32 -20 14 C-18.02 14 -16.04 14 -14 14 C-14.12375 12.948125 -14.12375 12.948125 -14.25 11.875 C-13.85850466 7.37280361 -11.32101216 4.5323741 -8.4375 1.1875 C-5.51590759 -1.22598938 -3.40367491 -1.0563129 0 0 Z " fill="#A3E4FC" transform="translate(152,210)"/>
<path d="M0 0 C5.21482503 0.40412328 10.4292311 0.81317468 15.64331055 1.22680664 C17.41729242 1.36683649 19.19138135 1.50551686 20.96557617 1.64282227 C23.51510469 1.84036615 26.06420934 2.04275306 28.61328125 2.24609375 C29.40712723 2.3065538 30.20097321 2.36701385 31.01887512 2.42930603 C34.1891913 2.68611399 36.96973809 2.9899127 40 4 C41.93454965 4.04678961 41.93454965 4.04678961 44.03515625 3.87890625 C44.83638916 3.83048584 45.63762207 3.78206543 46.46313477 3.73217773 C47.32092529 3.67618408 48.17871582 3.62019043 49.0625 3.5625 C58.72122679 2.9984932 68.32808551 2.90360218 78 3 C78.99 3 79.98 3 81 3 C81.99 3 82.98 3 84 3 C82.875 5 82.875 5 81 7 C78.125 7.1875 78.125 7.1875 75 7 C74.2265625 7.16242188 73.453125 7.32484375 72.65625 7.4921875 C68.91735946 8.2069754 65.31357342 7.96964293 61.5234375 7.83984375 C58.75092335 7.80430136 58.75092335 7.80430136 56 10 C55.505 9.01 55.505 9.01 55 8 C54.13375 8.165 53.2675 8.33 52.375 8.5 C48.59112495 9.05486559 44.88318095 9.03283077 41.0625 9 C35.91961174 8.9560906 31.07380861 9.18819062 26 10 C26 9.34 26 8.68 26 8 C25.00742187 8.14179688 24.01484375 8.28359375 22.9921875 8.4296875 C22.35120117 8.52088867 21.71021484 8.61208984 21.04980469 8.70605469 C19.07672949 8.98899687 17.10474342 9.27950249 15.1328125 9.5703125 C7.90848328 10.58990379 1.2524849 11.29508659 -6 10 C-6 9.01 -6 8.02 -6 7 C-0.72 7 4.56 7 10 7 C10 6.01 10 5.02 10 4 C5.71 3.67 1.42 3.34 -3 3 C-2.01 2.67 -1.02 2.34 0 2 C0 1.34 0 0.68 0 0 Z " fill="#CFECF3" transform="translate(30,240)"/>
<path d="M0 0 C1.35019981 0.00424484 1.35019981 0.00424484 2.72767639 0.00857544 C5.58030945 0.01969972 8.43261936 0.04478967 11.28515625 0.0703125 C13.22851107 0.08035233 15.17187084 0.08947642 17.11523438 0.09765625 C21.85949801 0.11961362 26.60352249 0.15408949 31.34765625 0.1953125 C31.34765625 0.5253125 31.34765625 0.8553125 31.34765625 1.1953125 C34.31765625 1.5253125 37.28765625 1.8553125 40.34765625 2.1953125 C38.34765625 4.1953125 38.34765625 4.1953125 36.3117981 4.42236328 C35.47558929 4.41188965 34.63938049 4.40141602 33.77783203 4.390625 C32.82989777 4.38401855 31.8819635 4.37741211 30.90530396 4.37060547 C29.87823334 4.35400879 28.85116272 4.33741211 27.79296875 4.3203125 C26.73987518 4.31273926 25.68678162 4.30516602 24.60177612 4.29736328 C20.08344848 4.26457541 15.56547795 4.20839832 11.04736328 4.15429688 C7.7542487 4.1181767 4.46119272 4.09395252 1.16796875 4.0703125 C0.14494659 4.05371582 -0.87807556 4.03711914 -1.93209839 4.02001953 C-2.88633698 4.01341309 -3.84057556 4.00680664 -4.82373047 4 C-5.66153046 3.98952637 -6.49933044 3.97905273 -7.36251831 3.96826172 C-9.87097194 4.21699088 -11.48776133 4.93624726 -13.65234375 6.1953125 C-13.65234375 7.5153125 -13.65234375 8.8353125 -13.65234375 10.1953125 C-25.53234375 10.1953125 -37.41234375 10.1953125 -49.65234375 10.1953125 C-49.65234375 9.2053125 -49.65234375 8.2153125 -49.65234375 7.1953125 C-43.97346018 4.63424736 -39.10247889 3.13513426 -32.81640625 2.94921875 C-31.46675781 2.89991211 -31.46675781 2.89991211 -30.08984375 2.84960938 C-28.22277173 2.78867022 -26.355578 2.73134724 -24.48828125 2.67773438 C-23.5859375 2.64357422 -22.68359375 2.60941406 -21.75390625 2.57421875 C-20.94260254 2.5491626 -20.13129883 2.52410645 -19.29541016 2.49829102 C-16.51714556 2.26437494 -16.51714556 2.26437494 -13.43676758 1.18383789 C-8.84687104 -0.01508418 -4.71715674 -0.0565742 0 0 Z " fill="#6FBADB" transform="translate(168.65234375,266.8046875)"/>
<path d="M0 0 C5.33853824 -0.0247366 10.67704303 -0.0428774 16.015625 -0.05493164 C17.83138612 -0.05995741 19.6471432 -0.06677903 21.46289062 -0.07543945 C24.0742289 -0.08758189 26.68551362 -0.09324591 29.296875 -0.09765625 C30.10743347 -0.10281754 30.91799194 -0.10797882 31.75311279 -0.11329651 C35.3420417 -0.11365296 38.54740786 0.02954053 42 1 C41.28571429 9.57142857 41.28571429 9.57142857 38 13 C37.34 12.67 36.68 12.34 36 12 C36.29296875 9.94921875 36.5859375 7.8984375 36.87890625 5.84765625 C36.91886719 5.23792969 36.95882812 4.62820313 37 4 C35.93102099 2.70439537 35.93102099 2.70439537 33.41796875 2.90234375 C32.35191406 2.91394531 31.28585938 2.92554688 30.1875 2.9375 C29.12917969 2.94652344 28.07085937 2.95554687 26.98046875 2.96484375 C25.50513672 2.98224609 25.50513672 2.98224609 24 3 C22.68 3 21.36 3 20 3 C17.25 4.08333333 17.25 4.08333333 15 6 C14.11341534 8.59122743 14.11341534 8.59122743 14 11 C12.845 11.0825 11.69 11.165 10.5 11.25 C5.77872502 11.81486683 2.0893261 13.66168853 -2 16 C-2.33 15.34 -2.66 14.68 -3 14 C-3.66 14 -4.32 14 -5 14 C-3.78703432 10.27446255 -2.47174765 6.63031088 -1 3 C-0.67 2.01 -0.34 1.02 0 0 Z " fill="#96DBF4" transform="translate(114,277)"/>
<path d="M0 0 C0.12375 0.5775 0.2475 1.155 0.375 1.75 C1.00648824 4.02335767 1.88858191 5.9253529 3 8 C3.66 6.35 4.32 4.7 5 3 C5.33 3 5.66 3 6 3 C5.979375 3.94875 5.95875 4.8975 5.9375 5.875 C5.77448174 8.90666283 5.77448174 8.90666283 7 11 C0.49572441 21.35866113 0.49572441 21.35866113 -4.66015625 22.68359375 C-6.59229842 23.01198155 -8.53176487 23.30053507 -10.4765625 23.54296875 C-13.2356744 23.87000672 -13.2356744 23.87000672 -16 26 C-17.91015625 26.4921875 -17.91015625 26.4921875 -20.0625 26.875 C-25.91095301 28.08304111 -32.69374051 29.69374051 -37 34 C-39.31765729 34.71927295 -41.65095874 35.3909893 -44 36 C-33.95475019 23.56302405 -33.95475019 23.56302405 -28.4375 22.51171875 C-26.70644983 22.38339962 -24.97015583 22.30886719 -23.234375 22.30078125 C-20.46283961 21.92768995 -19.87259788 20.98837679 -18 19 C-15.15517148 17.99525564 -12.43323894 17.8919301 -9.4375 17.75 C-5.65199106 17.40140828 -5.65199106 17.40140828 -3 14.625 C-1.68333584 11.16875658 -0.89133022 8.55618866 -1 4.875 C-1 1 -1 1 0 0 Z " fill="#A7D5E4" transform="translate(250,206)"/>
<path d="M0 0 C8.20340497 -0.16115537 16.32099618 0.33934671 24.5 0.9375 C26.41039062 1.06801758 26.41039062 1.06801758 28.359375 1.20117188 C29.57109375 1.28818359 30.7828125 1.37519531 32.03125 1.46484375 C33.13017578 1.543396 34.22910156 1.62194824 35.36132812 1.70288086 C38 2 38 2 40 3 C38.51948052 8.67532468 38.51948052 8.67532468 36 10.25 C35.34 10.4975 34.68 10.745 34 11 C33.34 11.66 32.68 12.32 32 13 C32 12.01 32 11.02 32 10 C25.37067871 9.00896939 18.7182449 8.22831904 12.0625 7.4375 C10.32129883 7.22963867 10.32129883 7.22963867 8.54492188 7.01757812 C5.69669946 6.67766681 2.848391 6.33849521 0 6 C0 4.02 0 2.04 0 0 Z " fill="#2990BF" transform="translate(192,272)"/>
<path d="M0 0 C3 1 3 1 3 1 Z M0 1 C-0.33 2.98 -0.66 4.96 -1 7 C-2.32 7 -3.64 7 -5 7 C-5 7.99 -5 8.98 -5 10 C-12.92 10.495 -12.92 10.495 -21 11 C-21 11.66 -21 12.32 -21 13 C-21.81984375 13.13277344 -22.6396875 13.26554687 -23.484375 13.40234375 C-25.10085937 13.66724609 -25.10085937 13.66724609 -26.75 13.9375 C-27.81734375 14.11152344 -28.8846875 14.28554688 -29.984375 14.46484375 C-32.90295247 14.93710916 -32.90295247 14.93710916 -35.328125 15.62890625 C-36.15570313 15.81259766 -36.15570313 15.81259766 -37 16 C-37.33 15.67 -37.66 15.34 -38 15 C-39.68183948 14.76712992 -41.3712416 14.58735834 -43.0625 14.4375 C-43.98160156 14.35371094 -44.90070313 14.26992188 -45.84765625 14.18359375 C-46.55792969 14.12300781 -47.26820313 14.06242187 -48 14 C-47 12 -47 12 -44.390625 10.95703125 C-40.85333822 9.95860353 -37.37449563 9.29531151 -33.75 8.6875 C-22.7843506 6.75750414 -10.95248998 1 0 1 Z " fill="#036DAC" transform="translate(273,252)"/>
<path d="M0 0 C4.29165198 -0.02935775 8.58327764 -0.04691802 12.875 -0.0625 C14.68097656 -0.07506836 14.68097656 -0.07506836 16.5234375 -0.08789062 C23.41719146 -0.10662365 30.15920263 0.12391174 37 1 C36.01 1.33 35.02 1.66 34 2 C34 2.66 34 3.32 34 4 C33.13375 3.814375 32.2675 3.62875 31.375 3.4375 C27.86887715 2.98300259 25.46536567 3.40022517 22 4 C20.52068663 4 19.04129632 3.97660866 17.5625 3.9375 C11.88572153 3.86931047 6.41812748 4.6882757 0.80859375 5.49609375 C-3.75973809 6.10051919 -8.31737642 6.4080291 -12.9140625 6.703125 C-16.946721 7.09107696 -20.82485127 7.93364334 -24.7578125 8.890625 C-27 9 -27 9 -28.8046875 7.546875 C-29.19914062 7.03640625 -29.59359375 6.5259375 -30 6 C-26.71023192 4.90341064 -25.28696233 5.20046862 -22 6 C-22 5.34 -22 4.68 -22 4 C-21.01 4 -20.02 4 -19 4 C-19 3.34 -19 2.68 -19 2 C-12.73 2 -6.46 2 0 2 C0 1.34 0 0.68 0 0 Z " fill="#B0DEEB" transform="translate(66,252)"/>
<path d="M0 0 C0 0.99 0 1.98 0 3 C2.31 2.34 4.62 1.68 7 1 C7.495 3.475 7.495 3.475 8 6 C-0.96482398 11.25082547 -14.81945517 9.11761862 -25 9 C-25 7.35 -25 5.7 -25 4 C-22.36 4 -19.72 4 -17 4 C-17 3.34 -17 2.68 -17 2 C-13.92382812 1.70703125 -13.92382812 1.70703125 -10.84765625 1.4140625 C-9.93306641 1.20910156 -9.93306641 1.20910156 -9 1 C-8.67 0.34 -8.34 -0.32 -8 -1 C-4.37673261 -2.2077558 -3.35853631 -1.54311128 0 0 Z " fill="#2EB4EA" transform="translate(265,291)"/>
<path d="M0 0 C2 2 2 2 2 7 C12.89 7 23.78 7 35 7 C35 7.33 35 7.66 35 8 C34.410979 8.01981934 33.82195801 8.03963867 33.21508789 8.06005859 C30.49717649 8.15643277 27.77991897 8.26564712 25.0625 8.375 C23.67321289 8.42140625 23.67321289 8.42140625 22.25585938 8.46875 C11.10922957 8.61046227 11.10922957 8.61046227 2 14 C-1.26914482 16.9872618 -3.33926389 17.35403018 -7.734375 17.2578125 C-8.85932373 17.24298828 -9.98427246 17.22816406 -11.14331055 17.21289062 C-12.92862183 17.16938477 -12.92862183 17.16938477 -14.75 17.125 C-17.18875369 17.09249412 -19.62756177 17.06383724 -22.06640625 17.0390625 C-23.25121582 17.02649414 -24.43602539 17.01392578 -25.65673828 17.00097656 C-32.12804157 16.9990863 -38.55446613 17.44724365 -45 18 C-44.67 17.34 -44.34 16.68 -44 16 C-36.3245824 14.32953216 -28.24664927 14.66081671 -20.42773438 14.48242188 C-19.30560547 14.44826172 -18.18347656 14.41410156 -17.02734375 14.37890625 C-15.50741821 14.34132202 -15.50741821 14.34132202 -13.95678711 14.30297852 C-9.33602012 13.82949393 -5.85729055 12.57152703 -2 10 C-3.98 9.67 -5.96 9.34 -8 9 C-7.01 8.67 -6.02 8.34 -5 8 C-5 6.02 -5 4.04 -5 2 C-3.35 1.34 -1.7 0.68 0 0 Z " fill="#A7D7E6" transform="translate(117,262)"/>
<path d="M0 0 C0.66 0.33 1.32 0.66 2 1 C0.71283353 2.00578589 -0.57988658 3.00446798 -1.875 4 C-2.59429687 4.556875 -3.31359375 5.11375 -4.0546875 5.6875 C-6 7 -6 7 -8 7 C-8.33 9.64 -8.66 12.28 -9 15 C-9.66 15 -10.32 15 -11 15 C-11 14.34 -11 13.68 -11 13 C-12.32 13 -13.64 13 -15 13 C-15 13.66 -15 14.32 -15 15 C-13.02 15.66 -11.04 16.32 -9 17 C-9.33 17.99 -9.66 18.98 -10 20 C-18.25079473 19.84643191 -24.14125185 18.69373926 -31 14 C-27.71023192 12.90341064 -26.28696233 13.20046862 -23 14 C-23 13.01 -23 12.02 -23 11 C-23.99 11 -24.98 11 -26 11 C-25.67 10.01 -25.34 9.02 -25 8 C-23.5459375 8.0309375 -23.5459375 8.0309375 -22.0625 8.0625 C-19.12534105 8.35618499 -19.12534105 8.35618499 -18 7 C-16.948125 6.87625 -15.89625 6.7525 -14.8125 6.625 C-9.89114419 5.81822036 -6.42089282 3.90420452 -2.25 1.25 C-1.5075 0.8375 -0.765 0.425 0 0 Z " fill="#A4D1E1" transform="translate(219,235)"/>
<path d="M0 0 C3.48170548 0.29014212 4.74228955 0.72756324 7.1875 3.3125 C9.73992314 7.09712741 11.20070092 9.97883834 11.6328125 14.546875 C11.71660156 15.39121094 11.80039063 16.23554688 11.88671875 17.10546875 C11.96535156 17.97816406 12.04398438 18.85085937 12.125 19.75 C12.21136719 20.63816406 12.29773438 21.52632812 12.38671875 22.44140625 C12.59823066 24.62702936 12.80240227 26.81308238 13 29 C13.99 29.33 14.98 29.66 16 30 C17.22393475 32.95784231 16.96516243 34.99727245 16 38 C14.515 37.505 14.515 37.505 13 37 C12.01 37 11.02 37 10 37 C9.67 37.66 9.34 38.32 9 39 C7.7165002 34.9088444 6.61978066 31.3091525 7 27 C7.33 26.67 7.66 26.34 8 26 C8.10068462 23.57172387 8.1387176 21.17801589 8.125 18.75 C8.12886719 18.08097656 8.13273438 17.41195312 8.13671875 16.72265625 C8.12944823 13.0219637 7.87843501 9.59740053 7 6 C6.46375 6.144375 5.9275 6.28875 5.375 6.4375 C2.60084173 7.09453748 -0.18525388 7.55219948 -3 8 C-3 6.35 -3 4.7 -3 3 C-2.01 2.67 -1.02 2.34 0 2 C0 1.34 0 0.68 0 0 Z " fill="#76C6E5" transform="translate(149,210)"/>
<path d="M0 0 C2.64 0 5.28 0 8 0 C8 1.98 8 3.96 8 6 C7.34 6 6.68 6 6 6 C5.86980469 6.556875 5.73960937 7.11375 5.60546875 7.6875 C2.51427402 19.49386956 2.51427402 19.49386956 -2.25 22.625 C-3.61125 23.305625 -3.61125 23.305625 -5 24 C-6 23 -6 23 -6.25 19.9375 C-5.96224959 15.405431 -4.73582159 12.13625954 -3 8 C-2.43161213 6.50222115 -1.86889784 5.00227417 -1.3125 3.5 C-0.879375 2.345 -0.44625 1.19 0 0 Z " fill="#189DC5" transform="translate(252,228)"/>
<path d="M0 0 C3.41124018 1.41154766 4.8456223 3.06221223 7 6 C7.66 6 8.32 6 9 6 C9 6.66 9 7.32 9 8 C9.66 8.33 10.32 8.66 11 9 C11 9.99 11 10.98 11 12 C11.99 13.485 11.99 13.485 13 15 C12.67 15.33 12.34 15.66 12 16 C11.83333333 19.5 11.83333333 19.5 12 23 C12.33 23.33 12.66 23.66 13 24 C14.69873787 31.7544238 14.69873787 31.7544238 12.5625 35.5625 C12.046875 36.036875 11.53125 36.51125 11 37 C8.52147088 30.46569595 7.34507578 24.27107161 6.52734375 17.33203125 C6.00679015 14.04290372 5.14175548 11.12206166 4 8 C2.989375 8.20625 1.97875 8.4125 0.9375 8.625 C-3.49506869 9.0471494 -5.86108962 8.4359485 -10 7 C-10 6.67 -10 6.34 -10 6 C-6.7 5.34 -3.4 4.68 0 4 C0 2.68 0 1.36 0 0 Z " fill="#BBE5EF" transform="translate(259,168)"/>
<path d="M0 0 C3.3 0 6.6 0 10 0 C8.08283715 7.30918336 8.08283715 7.30918336 5.23046875 9.12890625 C3.17222082 9.88057997 1.12156236 10.45549255 -1 11 C-2.051875 11.433125 -3.10375 11.86625 -4.1875 12.3125 C-7.69554186 13.17002134 -8.72398038 12.41464484 -12 11 C-15.32260509 10.52387939 -18.65324366 10.24694513 -22 10 C-22 9.67 -22 9.34 -22 9 C-17.38 9 -12.76 9 -8 9 C-8.66 6.69 -9.32 4.38 -10 2 C-6.7 2 -3.4 2 0 2 C0 1.34 0 0.68 0 0 Z " fill="#6EC2D4" transform="translate(232,248)"/>
<path d="M0 0 C-0.33 0.99 -0.66 1.98 -1 3 C-2.32 3 -3.64 3 -5 3 C-5 4.010625 -5 5.02125 -5 6.0625 C-5.70853593 11.42557198 -9.97661623 13.88167188 -14 17 C-14.66 17.66 -15.32 18.32 -16 19 C-18.06298828 19.22705078 -18.06298828 19.22705078 -20.5703125 19.1953125 C-21.46621094 19.18886719 -22.36210937 19.18242187 -23.28515625 19.17578125 C-24.22230469 19.15902344 -25.15945313 19.14226562 -26.125 19.125 C-27.06988281 19.11597656 -28.01476562 19.10695313 -28.98828125 19.09765625 C-31.32577292 19.07404522 -33.66276123 19.04111516 -36 19 C-32.38409988 17.02831107 -29.89104342 16.78497732 -25.75 16.875 C-24.67234375 16.89304687 -23.5946875 16.91109375 -22.484375 16.9296875 C-21.25460937 16.96449219 -21.25460937 16.96449219 -20 17 C-20 16.01 -20 15.02 -20 14 C-18.68 14 -17.36 14 -16 14 C-15.67 12.02 -15.34 10.04 -15 8 C-16.32 7.67 -17.64 7.34 -19 7 C-18.38511719 6.73445312 -17.77023437 6.46890625 -17.13671875 6.1953125 C-16.32847656 5.84210938 -15.52023437 5.48890625 -14.6875 5.125 C-13.88699219 4.77695313 -13.08648437 4.42890625 -12.26171875 4.0703125 C-9.8038166 2.97428106 -9.8038166 2.97428106 -7 1 C-4.605208 0.41590439 -2.46475374 0 0 0 Z " fill="#1683B1" transform="translate(288,245)"/>
<path d="M0 0 C0.66 0.33 1.32 0.66 2 1 C1.566875 2.0209375 1.566875 2.0209375 1.125 3.0625 C-1.09484367 8.85875846 -2.25461192 13.76200805 -2 20 C-0.35 19.01 1.3 18.02 3 17 C1.84414715 20.91211733 0.64465038 23.8745041 -2 27 C-0.02 27 1.96 27 4 27 C4 27.33 4 27.66 4 28 C1.89679937 28.50404808 -0.20759791 29.00310508 -2.3125 29.5 C-3.48425781 29.7784375 -4.65601563 30.056875 -5.86328125 30.34375 C-9 31 -9 31 -12 31 C-12 30.01 -12 29.02 -12 28 C-11.01 28 -10.02 28 -9 28 C-8.87625 27.2575 -8.7525 26.515 -8.625 25.75 C-8 23 -8 23 -6.9375 21.125 C-5.58604462 18.06170113 -5.87963247 15.31010701 -6 12 C-6 7.097602 -2.92801423 3.76458973 0 0 Z " fill="#31A2C6" transform="translate(249,231)"/>
<path d="M0 0 C0.99 0.495 0.99 0.495 2 1 C0.875 3 0.875 3 -1 5 C-3.875 5.1875 -3.875 5.1875 -7 5 C-7.7734375 5.16242188 -8.546875 5.32484375 -9.34375 5.4921875 C-13.08264054 6.2069754 -16.68642658 5.96964293 -20.4765625 5.83984375 C-23.24907665 5.80430136 -23.24907665 5.80430136 -26 8 C-26.495 7.01 -26.495 7.01 -27 6 C-28.299375 6.2475 -28.299375 6.2475 -29.625 6.5 C-33.40887505 7.05486559 -37.11681905 7.03283077 -40.9375 7 C-46.08038826 6.9560906 -50.92619139 7.18819062 -56 8 C-56 7.34 -56 6.68 -56 6 C-58.31 6.33 -60.62 6.66 -63 7 C-63.33 6.34 -63.66 5.68 -64 5 C-51.27383585 4.00184099 -38.55963382 3.04333958 -25.796875 2.71484375 C-25.04385605 2.69527115 -24.2908371 2.67569855 -23.51499939 2.65553284 C-19.82401538 2.5637761 -16.13330625 2.48838203 -12.44165039 2.42993164 C-11.09260807 2.40132733 -9.74356821 2.37260613 -8.39453125 2.34375 C-6.61332886 2.31571289 -6.61332886 2.31571289 -4.79614258 2.28710938 C-1.86232224 2.28311027 -1.86232224 2.28311027 0 0 Z " fill="#AEDBE9" transform="translate(112,242)"/>
<path d="M0 0 C5.28 0 10.56 0 16 0 C16 0.33 16 0.66 16 1 C13.36 1 10.72 1 8 1 C8 2.65 8 4.3 8 6 C18.89 5.34 29.78 4.68 41 4 C30.53385823 11.84960633 14.34318878 9.36066648 2 8 C0.74335022 5.09399739 0 3.20395416 0 0 Z " fill="#4DBEE8" transform="translate(232,294)"/>
<path d="M0 0 C0.69802734 -0.00386719 1.39605469 -0.00773437 2.11523438 -0.01171875 C5.4884727 -0.00529965 8.58847641 0.0753179 11.8125 1.125 C11.09821429 9.69642857 11.09821429 9.69642857 7.8125 13.125 C7.1525 12.795 6.4925 12.465 5.8125 12.125 C6.10546875 10.07421875 6.3984375 8.0234375 6.69140625 5.97265625 C6.73136719 5.36292969 6.77132812 4.75320313 6.8125 4.125 C5.74352099 2.82939537 5.74352099 2.82939537 3.23046875 3.02734375 C2.16441406 3.03894531 1.09835938 3.05054688 0 3.0625 C-1.05832031 3.07152344 -2.11664063 3.08054687 -3.20703125 3.08984375 C-4.68236328 3.10724609 -4.68236328 3.10724609 -6.1875 3.125 C-7.5075 3.125 -8.8275 3.125 -10.1875 3.125 C-12.9375 4.20833333 -12.9375 4.20833333 -15.1875 6.125 C-16.07408466 8.71622743 -16.07408466 8.71622743 -16.1875 11.125 C-17.38375 11.24875 -18.58 11.3725 -19.8125 11.5 C-23.46346813 11.94825054 -26.73274899 12.82946837 -30.1875 14.125 C-26.7673883 10.27737434 -22.71975744 7.51865978 -18.1875 5.125 C-17.5275 5.125 -16.8675 5.125 -16.1875 5.125 C-15.8575 3.805 -15.5275 2.485 -15.1875 1.125 C-10.07697475 0.28326643 -5.17501299 -0.029155 0 0 Z " fill="#ABDEF2" transform="translate(144.1875,276.875)"/>
<path d="M0 0 C0.66 0 1.32 0 2 0 C2.13277344 0.68707031 2.26554687 1.37414062 2.40234375 2.08203125 C2.57894531 2.98308594 2.75554687 3.88414063 2.9375 4.8125 C3.11152344 5.70582031 3.28554688 6.59914063 3.46484375 7.51953125 C3.97741153 10.11397171 3.97741153 10.11397171 5 13 C7.04520195 13.76456583 7.04520195 13.76456583 9.4375 14.25 C13.70419804 15.50291927 13.70419804 15.50291927 15.0390625 17.74609375 C15.5625 19.6875 15.5625 19.6875 16 23 C17.98 23.33 19.96 23.66 22 24 C22 27.3 22 30.6 22 34 C21.67 33.01 21.34 32.02 21 31 C20.401875 30.896875 19.80375 30.79375 19.1875 30.6875 C17 30 17 30 15.0625 27.0625 C12.8588525 23.79041735 11.71421665 23.03172685 8 22 C7.67 19.69 7.34 17.38 7 15 C6.0409375 14.8453125 6.0409375 14.8453125 5.0625 14.6875 C4.381875 14.460625 3.70125 14.23375 3 14 C2.67 13.01 2.34 12.02 2 11 C1.34 11 0.68 11 0 11 C0 7.37 0 3.74 0 0 Z " fill="#A0DDF2" transform="translate(313,97)"/>
<path d="M0 0 C3.3 0.33 6.6 0.66 10 1 C10 1.66 10 2.32 10 3 C10.94101563 3.13277344 11.88203125 3.26554688 12.8515625 3.40234375 C14.09679688 3.57894531 15.34203125 3.75554687 16.625 3.9375 C17.85476562 4.11152344 19.08453125 4.28554687 20.3515625 4.46484375 C23.57556184 4.93774301 26.78812176 5.45151002 30 6 C30 6.66 30 7.32 30 8 C27.85473901 8.19393875 25.70876323 8.37998676 23.5625 8.5625 C21.77005859 8.71912109 21.77005859 8.71912109 19.94140625 8.87890625 C18.97074219 8.91886719 18.00007813 8.95882812 17 9 C16.67 8.67 16.34 8.34 16 8 C13.30345146 7.92680379 10.63308542 7.90757463 7.9375 7.9375 C6.79958008 7.94426758 6.79958008 7.94426758 5.63867188 7.95117188 C3.75908129 7.9629932 1.87953101 7.98092922 0 8 C0 5.36 0 2.72 0 0 Z " fill="#ACD8E4" transform="translate(0,234)"/>
<path d="M0 0 C0.66 0 1.32 0 2 0 C4.1103435 4.27884606 4.24128739 8.13864142 4.125 12.8125 C4.11597656 13.50537109 4.10695312 14.19824219 4.09765625 14.91210938 C4.07426157 16.60822395 4.03839641 18.30415871 4 20 C2.35 20 0.7 20 -1 20 C-1.33 19.01 -1.66 18.02 -2 17 C-2.66 17 -3.32 17 -4 17 C-4.05416188 15.39620659 -4.09286638 13.79188594 -4.125 12.1875 C-4.14820313 11.29417969 -4.17140625 10.40085938 -4.1953125 9.48046875 C-4 7 -4 7 -2 4 C-1.34 4 -0.68 4 0 4 C0 2.68 0 1.36 0 0 Z " fill="#B0E7F7" transform="translate(154,216)"/>
<path d="M0 0 C-0.99 0.33 -1.98 0.66 -3 1 C0.465 0.505 0.465 0.505 4 0 C4 0.99 4 1.98 4 3 C2.68 3 1.36 3 0 3 C0 3.66 0 4.32 0 5 C-1.22976562 5.19916016 -1.22976562 5.19916016 -2.484375 5.40234375 C-4.10085937 5.66724609 -4.10085937 5.66724609 -5.75 5.9375 C-7.35101563 6.19853516 -7.35101563 6.19853516 -8.984375 6.46484375 C-11.90295247 6.93710916 -11.90295247 6.93710916 -14.328125 7.62890625 C-15.15570313 7.81259766 -15.15570313 7.81259766 -16 8 C-16.33 7.67 -16.66 7.34 -17 7 C-18.68183948 6.76712992 -20.3712416 6.58735834 -22.0625 6.4375 C-22.98160156 6.35371094 -23.90070313 6.26992188 -24.84765625 6.18359375 C-25.91306641 6.09271484 -25.91306641 6.09271484 -27 6 C-26 4 -26 4 -23.4453125 2.98046875 C-19.61021209 1.88907396 -15.79090357 1.04991041 -11.875 0.3125 C-10.82119141 0.09883789 -10.82119141 0.09883789 -9.74609375 -0.11914062 C-6.24046594 -0.78514364 -3.38975487 -1.30848051 0 0 Z " fill="#0E70AA" transform="translate(252,260)"/>
<path d="M0 0 C2.08071366 0.36924582 4.16431713 0.72244301 6.25 1.0625 C7.32765625 1.23910156 8.4053125 1.41570312 9.515625 1.59765625 C10.33546875 1.73042969 11.1553125 1.86320312 12 2 C11.67 3.98 11.34 5.96 11 8 C0.93605753 8.1176305 -8.96557967 7.87801178 -19 7 C-19 6.67 -19 6.34 -19 6 C-11.41 5.67 -3.82 5.34 4 5 C-0.0433647 2.97831765 -2.32129345 2.64072239 -6.75 2.375 C-8.50570312 2.26285156 -8.50570312 2.26285156 -10.296875 2.1484375 C-11.18890625 2.09945313 -12.0809375 2.05046875 -13 2 C-9.35980818 -1.64019182 -4.68801988 -1.26931946 0 0 Z " fill="#4499BC" transform="translate(221,266)"/>
<path d="M0 0 C-0.99 0 -1.98 0 -3 0 C-3 0.66 -3 1.32 -3 2 C-3.99 2.66 -4.98 3.32 -6 4 C-6.33 4.99 -6.66 5.98 -7 7 C-8 8 -9 9 -10 10 C-10.4125 10.886875 -10.825 11.77375 -11.25 12.6875 C-12.11625 13.8321875 -12.11625 13.8321875 -13 15 C-16.6875 15.3125 -16.6875 15.3125 -20 15 C-19.979375 15.969375 -19.95875 16.93875 -19.9375 17.9375 C-20 21 -20 21 -21 22 C-21.12375 23.134375 -21.2475 24.26875 -21.375 25.4375 C-21.58125 26.613125 -21.7875 27.78875 -22 29 C-22.99 29.66 -23.98 30.32 -25 31 C-23.98408579 25.53135543 -22.92908943 20.23609987 -21 15 C-21.99 15 -22.98 15 -24 15 C-24.33 13.68 -24.66 12.36 -25 11 C-22.525 11.495 -22.525 11.495 -20 12 C-20 12.66 -20 13.32 -20 14 C-18.02 14 -16.04 14 -14 14 C-14.12375 12.948125 -14.12375 12.948125 -14.25 11.875 C-13.85850466 7.37280361 -11.32101216 4.5323741 -8.4375 1.1875 C-5.51590759 -1.22598938 -3.40367491 -1.0563129 0 0 Z " fill="#A7E1F0" transform="translate(152,210)"/>
<path d="M0 0 C0.928125 0.03544922 1.85625 0.07089844 2.8125 0.10742188 C7.36958756 0.32613596 11.24137201 0.55092013 15.375 2.6875 C15.045 3.3475 14.715 4.0075 14.375 4.6875 C4.805 4.6875 -4.765 4.6875 -14.625 4.6875 C-14.625 4.3575 -14.625 4.0275 -14.625 3.6875 C-9.18 3.1925 -9.18 3.1925 -3.625 2.6875 C-10.555 2.1925 -10.555 2.1925 -17.625 1.6875 C-17.625 1.3575 -17.625 1.0275 -17.625 0.6875 C-11.66819361 -0.40376068 -6.03477139 -0.30850022 0 0 Z " fill="#66AAC2" transform="translate(210.625,267.3125)"/>
<path d="M0 0 C0.35729936 1.32711192 0.68325425 2.66262906 1 4 C1.268125 4.9075 1.53625 5.815 1.8125 6.75 C2.0345231 10.59840036 1.46965327 12.86687312 -0.36328125 16.23046875 C-3.63757748 19.77045966 -8.38371837 20.37139995 -13 21 C-14.66626539 21.03657098 -16.33403557 21.04837646 -18 21 C-18 21.66 -18 22.32 -18 23 C-19.74294678 23.86846831 -21.49468663 24.71930627 -23.25 25.5625 C-24.22453125 26.03816406 -25.1990625 26.51382813 -26.203125 27.00390625 C-29.09856297 28.03510273 -30.19966161 28.11346788 -33 27 C-32.30859375 25.03515625 -32.30859375 25.03515625 -31 23 C-28.72265625 22.49609375 -28.72265625 22.49609375 -26.0625 22.4375 C-22.37232216 22.46188679 -22.37232216 22.46188679 -19.43359375 20.53515625 C-18.96050781 20.02855469 -18.48742187 19.52195313 -18 19 C-15.15517148 17.99525564 -12.43323894 17.8919301 -9.4375 17.75 C-5.65199106 17.40140828 -5.65199106 17.40140828 -3 14.625 C-1.68333584 11.16875658 -0.89133022 8.55618866 -1 4.875 C-1 1 -1 1 0 0 Z " fill="#B5E2F0" transform="translate(250,206)"/>
<path d="M0 0 C0.66 0.66 1.32 1.32 2 2 C1.34 2 0.68 2 0 2 C0 2.66 0 3.32 0 4 C0.66 4.33 1.32 4.66 2 5 C1.01 5.33 0.02 5.66 -1 6 C-1.433125 6.928125 -1.433125 6.928125 -1.875 7.875 C-3.37553 10.70933445 -5.17221007 11.58610503 -8 13 C-8.66 13 -9.32 13 -10 13 C-10 12.34 -10 11.68 -10 11 C-12.8884185 12.41062299 -15.68711471 13.79415442 -18.375 15.5625 C-21.8408307 17.4604549 -25.14430353 18.15043976 -29 19 C-29 18.01 -29 17.02 -29 16 C-27.99453125 15.74476563 -26.9890625 15.48953125 -25.953125 15.2265625 C-21.94148672 14.08124583 -18.42077387 12.3295679 -14.75 10.375 C-8.40178571 7 -8.40178571 7 -5 7 C-5 6.34 -5 5.68 -5 5 C-3.37446717 3.29319053 -1.70884005 1.62339805 0 0 Z " fill="#A0D6E9" transform="translate(298,201)"/>
<path d="M0 0 C0.82062424 0.00015106 1.64124847 0.00030212 2.48674011 0.00045776 C3.80875175 0.01594162 3.80875175 0.01594162 5.1574707 0.03173828 C6.5161602 0.03598312 6.5161602 0.03598312 7.90229797 0.04031372 C10.79608353 0.05151114 13.6895599 0.07661489 16.58325195 0.10205078 C18.54483603 0.11208115 20.50642495 0.1212069 22.46801758 0.12939453 C27.27738155 0.15144905 32.08651432 0.18597589 36.89575195 0.22705078 C36.89575195 0.55705078 36.89575195 0.88705078 36.89575195 1.22705078 C39.86575195 1.55705078 42.83575195 1.88705078 45.89575195 2.22705078 C43.89575195 4.22705078 43.89575195 4.22705078 41.94384766 4.4699707 C41.16098389 4.46586182 40.37812012 4.46175293 39.5715332 4.45751953 C38.7072168 4.45558594 37.84290039 4.45365234 36.95239258 4.45166016 C35.59404297 4.43329102 35.59404297 4.43329102 34.20825195 4.41455078 C33.32202148 4.41390625 32.43579102 4.41326172 31.52270508 4.41259766 C26.53961097 4.37940162 21.83208142 3.93830685 16.89575195 3.22705078 C12.75262992 2.96613244 8.60668458 2.81473143 4.45825195 2.66455078 C3.34514648 2.62136719 2.23204102 2.57818359 1.08520508 2.53369141 C-1.64450649 2.4282519 -4.37429948 2.32613049 -7.10424805 2.22705078 C-4.03653614 0.18190951 -3.44856757 -0.02122195 0 0 Z " fill="#7AC5E2" transform="translate(163.104248046875,266.77294921875)"/>
<path d="M0 0 C4.01662874 0.07010702 8.03243845 0.15861618 12.04833984 0.26245117 C14.06718233 0.31110656 16.08633777 0.34618343 18.10546875 0.38085938 C27.11562057 0.62497679 35.26877852 1.79634116 44 4 C43.01 4.99 42.02 5.98 41 7 C41 6.34 41 5.68 41 5 C39.72125 4.979375 38.4425 4.95875 37.125 4.9375 C36.40570313 4.92589844 35.68640625 4.91429687 34.9453125 4.90234375 C32.91814596 4.87350758 32.91814596 4.87350758 31 6 C30.34 5.690625 29.68 5.38125 29 5.0625 C26.08889183 4.03148252 24.68686416 3.94151724 21.6875 4.0625 C14.31117528 4.25278455 7.18402049 2.4974137 0 1 C0 0.67 0 0.34 0 0 Z " fill="#46AEDB" transform="translate(176,279)"/>
<path d="M0 0 C1.16144531 0.00902344 2.32289063 0.01804687 3.51953125 0.02734375 C4.39996094 0.03894531 5.28039062 0.05054688 6.1875 0.0625 C6.1875 0.3925 6.1875 0.7225 6.1875 1.0625 C4.45942682 1.40145656 2.72998026 1.73341525 1 2.0625 C-0.44439453 2.3409375 -0.44439453 2.3409375 -1.91796875 2.625 C-4.6059206 3.03127612 -7.10021019 3.14183572 -9.8125 3.0625 C-9.8125 3.7225 -9.8125 4.3825 -9.8125 5.0625 C-2.2225 5.3925 5.3675 5.7225 13.1875 6.0625 C13.1875 6.3925 13.1875 6.7225 13.1875 7.0625 C2.6275 7.0625 -7.9325 7.0625 -18.8125 7.0625 C-18.8125 6.0725 -18.8125 5.0825 -18.8125 4.0625 C-12.31428488 1.1319324 -7.21630251 -0.07289194 0 0 Z " fill="#83C4DE" transform="translate(137.8125,269.9375)"/>
<path d="M0 0 C0.93045933 2.55144824 1.08564091 3.74006478 0.22265625 6.359375 C-0.35162109 7.54273438 -0.35162109 7.54273438 -0.9375 8.75 C-1.31777344 9.54921875 -1.69804687 10.3484375 -2.08984375 11.171875 C-2.39019531 11.77515625 -2.69054687 12.3784375 -3 13 C-3.99 13 -4.98 13 -6 13 C-6 13.99 -6 14.98 -6 16 C-8.10170656 16.53067341 -10.20647598 17.04922857 -12.3125 17.5625 C-13.48425781 17.85253906 -14.65601563 18.14257812 -15.86328125 18.44140625 C-19 19 -19 19 -22 18 C-21.01 17.67 -20.02 17.34 -19 17 C-19 16.34 -19 15.68 -19 15 C-13.95859836 12.18467181 -9.77378925 10.4811491 -4 10 C-3.896875 9.46375 -3.79375 8.9275 -3.6875 8.375 C-2.81907303 5.37497956 -1.44379704 2.7620465 0 0 Z " fill="#5CB1D2" transform="translate(243,246)"/>
<path d="M0 0 C0.33 0 0.66 0 1 0 C1.63266696 6.95933653 0.24090792 11.41323318 -4 17 C-6.85074233 19.86504371 -9.84445917 22.4769423 -13 25 C-13 24.01 -13 23.02 -13 22 C-12.34 22 -11.68 22 -11 22 C-10.81824219 21.41992188 -10.63648438 20.83984375 -10.44921875 20.2421875 C-8.9581894 15.60852707 -7.31666424 11.30237645 -5 7 C-4.01 7 -3.02 7 -2 7 C-1.34 4.69 -0.68 2.38 0 0 Z " fill="#6FC1E0" transform="translate(334,175)"/>
<path d="M0 0 C0.33 0 0.66 0 1 0 C1.144375 1.216875 1.28875 2.43375 1.4375 3.6875 C1.72551656 6.06259304 2.06991619 8.29364798 2.625 10.625 C3.31711437 15.00839098 2.46956776 19.29564837 0 23 C-2.94131891 23.98043964 -4.82501665 24.11621202 -7.88671875 24.09765625 C-8.82451172 24.09443359 -9.76230469 24.09121094 -10.72851562 24.08789062 C-11.70498047 24.07951172 -12.68144531 24.07113281 -13.6875 24.0625 C-14.67556641 24.05798828 -15.66363281 24.05347656 -16.68164062 24.04882812 C-19.12115474 24.03704303 -21.56054689 24.02059011 -24 24 C-24 23.67 -24 23.34 -24 23 C-10.3667426 21.85193622 -10.3667426 21.85193622 -4 22 C-3.67 21.01 -3.34 20.02 -3 19 C-2.34 19 -1.68 19 -1 19 C-0.67 12.73 -0.34 6.46 0 0 Z " fill="#97D6F0" transform="translate(155,245)"/>
<path d="M0 0 C-3.38529355 1.82102356 -5.44978584 2.17096384 -9.3125 2 C-15.41249656 1.88868619 -21.1969439 2.61643062 -27.2265625 3.48046875 C-30.91896749 3.98884335 -34.60091851 4.40997653 -38.3125 4.75 C-39.36050781 4.84796875 -40.40851562 4.9459375 -41.48828125 5.046875 C-44 5 -44 5 -46 3 C-42.25560281 1.1278014 -37.81406126 1.29691125 -33.6875 0.9375 C-32.67034912 0.84807129 -31.65319824 0.75864258 -30.60522461 0.66650391 C-20.39410849 -0.1618722 -10.23634692 -0.19014886 0 0 Z " fill="#C3E9F4" transform="translate(94,254)"/>
<path d="M0 0 C0.66 0.33 1.32 0.66 2 1 C-3.16923077 6.78461538 -3.16923077 6.78461538 -7.375 7.875 C-8.674375 7.936875 -8.674375 7.936875 -10 8 C-10.33 8.99 -10.66 9.98 -11 11 C-13.29296875 11.84375 -13.29296875 11.84375 -16.1875 12.5 C-20.5258996 13.56765303 -24.12490012 14.80061899 -28 17 C-28.33 16.34 -28.66 15.68 -29 15 C-25.9480573 13.47402865 -22.90009359 11.95298522 -19.8125 10.5 C-17.29209625 9.15578467 -15.93012839 8.0178615 -14 6 C-10.82043824 3.99805371 -7.43737916 3.33016314 -3.8046875 2.5625 C-1.77272609 2.08250081 -1.77272609 2.08250081 0 0 Z " fill="#72B2CB" transform="translate(252,224)"/>
<path d="M0 0 C0.33 0.66 0.66 1.32 1 2 C2.32 1.67 3.64 1.34 5 1 C4.67 2.32 4.34 3.64 4 5 C2.02 5.33 0.04 5.66 -2 6 C-2 6.66 -2 7.32 -2 8 C-3.62395997 8.50336767 -5.24920541 9.00258976 -6.875 9.5 C-7.77992188 9.7784375 -8.68484375 10.056875 -9.6171875 10.34375 C-12 11 -12 11 -14 11 C-13.375 8.5625 -13.375 8.5625 -12 6 C-9 5.3125 -9 5.3125 -6 5 C-5.34 4.34 -4.68 3.68 -4 3 C-3.01 2.67 -2.02 2.34 -1 2 C-0.67 1.34 -0.34 0.68 0 0 Z " fill="#2B8DC5" transform="translate(271,246)"/>
<path d="M0 0 C2.22825644 2.22825644 2.69239369 3.65761628 3.625 6.625 C4.01558594 7.85089844 4.01558594 7.85089844 4.4140625 9.1015625 C4.60742188 9.72804687 4.80078125 10.35453125 5 11 C5.66 11 6.32 11 7 11 C7.82638376 13.89234315 8 15.88742431 8 19 C5.69 18.34 3.38 17.68 1 17 C0.67 11.39 0.34 5.78 0 0 Z " fill="#95DBF1" transform="translate(160,222)"/>
<path d="M0 0 C0.33 0 0.66 0 1 0 C0.979375 0.94875 0.95875 1.8975 0.9375 2.875 C0.77448174 5.90666283 0.77448174 5.90666283 2 8 C-0.61269321 12.16095586 -3.13950392 15.87483651 -7 19 C-10.3125 19.3125 -10.3125 19.3125 -13 19 C-11.71034824 17.62437146 -10.37310707 16.29233607 -9 15 C-8.34 15 -7.68 15 -7 15 C-6.731875 14.278125 -6.46375 13.55625 -6.1875 12.8125 C-5.00792738 10.01877538 -3.5578026 7.59633766 -2 5 C-1.30177383 3.34630643 -0.62501395 1.68272986 0 0 Z " fill="#98D7ED" transform="translate(255,209)"/>
<path d="M0 0 C8.32448255 -0.35733073 16.19378155 -0.24762523 24 3 C24.33 3.66 24.66 4.32 25 5 C19.72 5 14.44 5 9 5 C9 4.34 9 3.68 9 3 C6.01758453 2.22678118 3.02419525 1.58803797 0 1 C0 0.67 0 0.34 0 0 Z " fill="#63B7D6" transform="translate(231,286)"/>
<path d="M0 0 C0.99 0 1.98 0 3 0 C3 0.66 3 1.32 3 2 C3.969375 2.12375 4.93875 2.2475 5.9375 2.375 C7.4534375 2.684375 7.4534375 2.684375 9 3 C9.33 3.66 9.66 4.32 10 5 C12.01669827 6.13350534 12.01669827 6.13350534 14 7 C12.8125 8.5 12.8125 8.5 11 10 C8.3125 10.1875 8.3125 10.1875 6 10 C6 8.68 6 7.36 6 6 C4.68 6.33 3.36 6.66 2 7 C0 4 0 4 0 0 Z " fill="#7DC3E0" transform="translate(143,230)"/>
<path d="M0 0 C3.63 0 7.26 0 11 0 C11 0.66 11 1.32 11 2 C11.66 2 12.32 2 13 2 C13.33 2.66 13.66 3.32 14 4 C15.65 3.67 17.3 3.34 19 3 C19 3.66 19 4.32 19 5 C21.64 5 24.28 5 27 5 C27 5.33 27 5.66 27 6 C25.77023438 6.09087891 25.77023438 6.09087891 24.515625 6.18359375 C22.89914063 6.30927734 22.89914063 6.30927734 21.25 6.4375 C20.18265625 6.51871094 19.1153125 6.59992188 18.015625 6.68359375 C15.56320038 6.94090773 13.36078709 7.31812218 11 8 C10.67 6.35 10.34 4.7 10 3 C8.906875 3.061875 7.81375 3.12375 6.6875 3.1875 C3 3 3 3 0 0 Z " fill="#43A7CF" transform="translate(211,280)"/>
<path d="M0 0 C0.99 0.33 1.98 0.66 3 1 C3.25 6.625 3.25 6.625 1 10 C-1.1640625 10.29296875 -1.1640625 10.29296875 -3.625 10.1875 C-4.44226563 10.16042969 -5.25953125 10.13335937 -6.1015625 10.10546875 C-6.72804687 10.07066406 -7.35453125 10.03585937 -8 10 C-6.43622501 6.67697814 -4.78646849 4.43815993 -2 2 C-1.34 2 -0.68 2 0 2 C0 1.34 0 0.68 0 0 Z " fill="#409EC2" transform="translate(255,248)"/>
<path d="M0 0 C4.29165198 -0.02935775 8.58327764 -0.04691802 12.875 -0.0625 C14.07898438 -0.07087891 15.28296875 -0.07925781 16.5234375 -0.08789062 C23.41719146 -0.10662365 30.15920263 0.12391174 37 1 C36.01 1.33 35.02 1.66 34 2 C34 2.66 34 3.32 34 4 C32.97386597 3.76228882 32.97386597 3.76228882 31.92700195 3.51977539 C28.64547588 2.9370438 25.49940079 2.78632513 22.16796875 2.68359375 C20.87568359 2.64169922 19.58339844 2.59980469 18.25195312 2.55664062 C16.89713808 2.51683648 15.54232033 2.47712409 14.1875 2.4375 C12.81313895 2.39426277 11.43878976 2.35064688 10.06445312 2.30664062 C6.70973331 2.2007021 3.3549414 2.09862811 0 2 C0 1.34 0 0.68 0 0 Z " fill="#A8DAF0" transform="translate(66,252)"/>
<path d="M0 0 C0.66 0.33 1.32 0.66 2 1 C1.030625 1.639375 0.06125 2.27875 -0.9375 2.9375 C-3.76036269 4.6965259 -3.76036269 4.6965259 -5 6 C-8.03186062 6.49776816 -11.07145266 6.90103589 -14.1171875 7.3046875 C-17.18685307 8.04506754 -18.0329037 8.64419605 -20 11 C-23.00234227 13.12665911 -25.50344611 14.83448204 -29 16 C-29 15.34 -29 14.68 -29 14 C-26.76953125 12.125 -26.76953125 12.125 -23.8125 10 C-22.84957031 9.29875 -21.88664063 8.5975 -20.89453125 7.875 C-16.16674478 4.81246626 -11.6415509 3.62193016 -6.18359375 2.5625 C-3.94108731 2.07311281 -3.94108731 2.07311281 -1.84765625 0.875 C-1.23792969 0.58625 -0.62820312 0.2975 0 0 Z " fill="#90C6D9" transform="translate(240,228)"/>
<path d="M0 0 C1.32 0 2.64 0 4 0 C3.38461538 7.50769231 3.38461538 7.50769231 1.4375 10 C0.7259375 10.495 0.7259375 10.495 0 11 C-0.33 10.34 -0.66 9.68 -1 9 C-1.99 9.99 -2.98 10.98 -4 12 C-4.66 11.67 -5.32 11.34 -6 11 C-5.01873444 8.99074195 -4.0150089 6.99242489 -3 5 C-2.525625 4.05125 -2.05125 3.1025 -1.5625 2.125 C-1.046875 1.42375 -0.53125 0.7225 0 0 Z " fill="#0B8BBC" transform="translate(255,229)"/>
<path d="M0 0 C0.33 0.66 0.66 1.32 1 2 C0 4 0 4 -1.84765625 4.6328125 C-2.57855469 4.79523438 -3.30945313 4.95765625 -4.0625 5.125 C-4.79597656 5.29257812 -5.52945312 5.46015625 -6.28515625 5.6328125 C-6.85105469 5.75398438 -7.41695313 5.87515625 -8 6 C-8 5.34 -8 4.68 -8 4 C-8.99 4.66 -9.98 5.32 -11 6 C-13.33199388 6.07905064 -15.66832622 6.08798769 -18 6 C-15.3612314 4.24082094 -13.03921171 3.07080116 -10.125 1.875 C-8.86042969 1.34519531 -8.86042969 1.34519531 -7.5703125 0.8046875 C-4.89833906 -0.03182698 -2.78118973 -0.14952633 0 0 Z " fill="#0465A4" transform="translate(264,256)"/>
<path d="M0 0 C1.08345703 0.00515625 2.16691406 0.0103125 3.28320312 0.015625 C4.97413086 0.0465625 4.97413086 0.0465625 6.69921875 0.078125 C7.81490234 0.08328125 8.93058594 0.0884375 10.08007812 0.09375 C15.60787036 0.14617719 20.94227055 0.35393802 26.38671875 1.328125 C26.38671875 1.658125 26.38671875 1.988125 26.38671875 2.328125 C25.55946289 2.31765137 24.73220703 2.30717773 23.87988281 2.29638672 C20.13219235 2.25481588 16.38455043 2.22879508 12.63671875 2.203125 C11.33476562 2.18636719 10.0328125 2.16960937 8.69140625 2.15234375 C6.81582031 2.14267578 6.81582031 2.14267578 4.90234375 2.1328125 C3.75024414 2.12233887 2.59814453 2.11186523 1.41113281 2.10107422 C-1.56801559 2.32472679 -3.1697097 2.65624418 -5.61328125 4.328125 C-6.60328125 5.813125 -6.60328125 5.813125 -7.61328125 7.328125 C-8.27328125 6.008125 -8.93328125 4.688125 -9.61328125 3.328125 C-6.3796678 0.42720753 -4.30512555 -0.04097765 0 0 Z " fill="#5CB7DF" transform="translate(160.61328125,268.671875)"/>
<path d="M0 0 C0.66 0.66 1.32 1.32 2 2 C1.625 5.625 1.625 5.625 1 9 C-1.8125 9.625 -1.8125 9.625 -5 10 C-5.99 9.34 -6.98 8.68 -8 8 C-7.01 8 -6.02 8 -5 8 C-5 6.02 -5 4.04 -5 2 C-3.35 1.34 -1.7 0.68 0 0 Z " fill="#BFDEEA" transform="translate(117,262)"/>
<path d="M0 0 C1.32 0.33 2.64 0.66 4 1 C3.34 1 2.68 1 2 1 C1.8453125 2.7634375 1.8453125 2.7634375 1.6875 4.5625 C0.62486558 12.80155594 -2.85697128 17.75276127 -9.3125 22.8125 C-9.869375 23.204375 -10.42625 23.59625 -11 24 C-9.44303593 20.17836093 -6.96591316 17.81381505 -4 15 C-2.66080315 13.86154933 -2.66080315 13.86154933 -2.5625 10.875 C-2.0082083 7.05654608 -1.12585988 3.67780895 0 0 Z " fill="#95D7ED" transform="translate(132,225)"/>
<path d="M0 0 C-4.24997272 4.24997272 -12.88866168 3.85612308 -18.703125 4.125 C-20.46924157 4.125 -22.23529463 4.07058821 -24 4 C-24 3.01 -24 2.02 -24 1 C-20.93758173 0.83170223 -17.87508013 0.66530338 -14.8125 0.5 C-13.94818359 0.45230469 -13.08386719 0.40460938 -12.19335938 0.35546875 C-8.12442913 0.13721196 -4.07665227 -0.06752219 0 0 Z " fill="#30C1F9" transform="translate(264,295)"/>
<path d="M0 0 C2.6875 0.3125 2.6875 0.3125 5 1 C5 1.66 5 2.32 5 3 C6.65 3.33 8.3 3.66 10 4 C10.53154742 5.60064843 11.04988353 7.20568874 11.5625 8.8125 C11.85253906 9.70582031 12.14257812 10.59914062 12.44140625 11.51953125 C13 14 13 14 12 17 C11.60167969 16.24074219 11.20335937 15.48148438 10.79296875 14.69921875 C10.26316406 13.70535156 9.73335937 12.71148437 9.1875 11.6875 C8.66542969 10.70136719 8.14335937 9.71523437 7.60546875 8.69921875 C6.21134193 6.35532184 5.14727493 4.65519109 3 3 C-0.12549017 2.74951364 -0.12549017 2.74951364 -3 3 C-1.8125 1.4375 -1.8125 1.4375 0 0 Z " fill="#DCFCFD" transform="translate(149,207)"/>
<path d="M0 0 C7.26 0.99 14.52 1.98 22 3 C21.67 3.66 21.34 4.32 21 5 C19.741875 5.020625 18.48375 5.04125 17.1875 5.0625 C16.47980469 5.07410156 15.77210937 5.08570313 15.04296875 5.09765625 C13 5 13 5 10 4 C7.77425665 3.77548542 5.54418481 3.59217122 3.3125 3.4375 C2.13300781 3.35371094 0.95351563 3.26992187 -0.26171875 3.18359375 C-1.16535156 3.12300781 -2.06898437 3.06242188 -3 3 C-2.01 2.67 -1.02 2.34 0 2 C0 1.34 0 0.68 0 0 Z " fill="#CDE3E5" transform="translate(30,240)"/>
<path d="M0 0 C0.66 0.33 1.32 0.66 2 1 C1.01 1.66 0.02 2.32 -1 3 C-1.72965366 5.56282742 -1.72965366 5.56282742 -2 8 C-3.19625 8.12375 -4.3925 8.2475 -5.625 8.375 C-9.27596813 8.82325054 -12.54524899 9.70446837 -16 11 C-12.94900596 7.67633258 -9.76550484 5.45775774 -5.875 3.1875 C-4.82054688 2.56230469 -3.76609375 1.93710937 -2.6796875 1.29296875 C-1.35324219 0.65294922 -1.35324219 0.65294922 0 0 Z " fill="#B6E9FA" transform="translate(130,280)"/>
<path d="M0 0 C7.92 0.33 15.84 0.66 24 1 C17.38625594 5.4091627 7.59785276 4.34079755 0 3 C0 2.01 0 1.02 0 0 Z " fill="#B8E0EC" transform="translate(24,247)"/>
<path d="M0 0 C0.33 0.66 0.66 1.32 1 2 C-0.07421875 4.3125 -0.07421875 4.3125 -1.6875 7 C-2.20699219 7.886875 -2.72648437 8.77375 -3.26171875 9.6875 C-5.08099491 12.10775053 -6.26856158 12.8428937 -9 14 C-9.66 14.66 -10.32 15.32 -11 16 C-11.99 16 -12.98 16 -14 16 C-12.65396518 11.96189555 -10.34663277 10.52704924 -7 8 C-6.34 8 -5.68 8 -5 8 C-5 7.01 -5 6.02 -5 5 C-2.5 2.3125 -2.5 2.3125 0 0 Z " fill="#A4D6E9" transform="translate(334,168)"/>
<path d="M0 0 C2.64 0 5.28 0 8 0 C8 1.98 8 3.96 8 6 C7.67 6 7.34 6 7 6 C7 4.35 7 2.7 7 1 C5.07260374 1.12931788 5.07260374 1.12931788 3 2 C1.45919267 4.19494359 1.45919267 4.19494359 0.3125 6.875 C-0.10386719 7.75929687 -0.52023438 8.64359375 -0.94921875 9.5546875 C-2.06780591 12.06340826 -2.06780591 12.06340826 -3 15 C-4 14 -4 14 -4.3125 12 C-3.85293157 7.58814311 -1.93040703 3.95561083 0 0 Z " fill="#158EBE" transform="translate(252,228)"/>
<path d="M0 0 C0.33 0.66 0.66 1.32 1 2 C0.57847656 2.45890625 0.15695312 2.9178125 -0.27734375 3.390625 C-1.09912109 4.31101563 -1.09912109 4.31101563 -1.9375 5.25 C-2.48277344 5.85328125 -3.02804687 6.4565625 -3.58984375 7.078125 C-5.06212799 9.08467305 -5.57529189 10.57002449 -6 13 C-7.98 13 -9.96 13 -12 13 C-12 12.34 -12 11.68 -12 11 C-11.34 11 -10.68 11 -10 11 C-9.95875 10.4225 -9.9175 9.845 -9.875 9.25 C-8.56017459 5.86902037 -6.01965292 4.87218481 -3 3 C-1.20605554 1.37648891 -1.20605554 1.37648891 0 0 Z " fill="#92CEE3" transform="translate(310,192)"/>
<path d="M0 0 C0 3.96 0 7.92 0 12 C-2.475 11.01 -2.475 11.01 -5 10 C-4.67 7.03 -4.34 4.06 -4 1 C-1 0 -1 0 0 0 Z " fill="#C8ECF9" transform="translate(156,223)"/>
<path d="M0 0 C0.84755859 0.00322266 1.69511719 0.00644531 2.56835938 0.00976562 C3.8899707 0.02233398 3.8899707 0.02233398 5.23828125 0.03515625 C6.57729492 0.04192383 6.57729492 0.04192383 7.94335938 0.04882812 C10.14590112 0.06060642 12.34830724 0.07705461 14.55078125 0.09765625 C14.55078125 0.42765625 14.55078125 0.75765625 14.55078125 1.09765625 C12.79701172 1.27941406 12.79701172 1.27941406 11.0078125 1.46484375 C9.45959454 1.63374026 7.91141964 1.80303193 6.36328125 1.97265625 C5.59435547 2.05128906 4.82542969 2.12992187 4.03320312 2.2109375 C-0.10702579 2.67293729 -3.64155376 3.28157555 -7.44921875 5.09765625 C-7.44921875 3.77765625 -7.44921875 2.45765625 -7.44921875 1.09765625 C-4.6251011 0.1562837 -2.92003843 -0.01959757 0 0 Z " fill="#519CB8" transform="translate(255.44921875,265.90234375)"/>
<path d="M0 0 C6.6 0 13.2 0 20 0 C20 0.99 20 1.98 20 3 C13.4 2.67 6.8 2.34 0 2 C0 1.34 0 0.68 0 0 Z " fill="#3A90B2" transform="translate(252,264)"/>
<path d="M0 0 C0.66 0 1.32 0 2 0 C2.13277344 0.68707031 2.26554687 1.37414062 2.40234375 2.08203125 C2.57894531 2.98308594 2.75554687 3.88414063 2.9375 4.8125 C3.11152344 5.70582031 3.28554688 6.59914063 3.46484375 7.51953125 C3.97741153 10.11397171 3.97741153 10.11397171 5 13 C5.99 13.33 6.98 13.66 8 14 C8.33 14.99 8.66 15.98 9 17 C8.34 17 7.68 17 7 17 C7 16.34 7 15.68 7 15 C6.0409375 14.8453125 6.0409375 14.8453125 5.0625 14.6875 C4.381875 14.460625 3.70125 14.23375 3 14 C2.67 13.01 2.34 12.02 2 11 C1.34 11 0.68 11 0 11 C0 7.37 0 3.74 0 0 Z " fill="#A6DCF0" transform="translate(313,97)"/>
<path d="M0 0 C3.99068323 1.29697205 3.99068323 1.29697205 5.5 3.8125 C5.1875 7.5 5.1875 7.5 4.5 10.8125 C3.51 10.4825 2.52 10.1525 1.5 9.8125 C1.5 7.1725 1.5 4.5325 1.5 1.8125 C-0.81 1.8125 -3.12 1.8125 -5.5 1.8125 C-2.5 -0.1875 -2.5 -0.1875 0 0 Z " fill="#5AB4D6" transform="translate(259.5,222.1875)"/>
<path d="M0 0 C0.66 0.99 1.32 1.98 2 3 C1.67 3.33 1.34 3.66 1 4 C0.83333333 7.5 0.83333333 7.5 1 11 C1.33 11.33 1.66 11.66 2 12 C2.421875 13.92578125 2.421875 13.92578125 2.75 16.3125 C2.86859375 17.09238281 2.9871875 17.87226563 3.109375 18.67578125 C2.97031127 21.63088562 1.81951543 22.73988576 0 25 C-0.39244498 21.20992481 -0.76098914 17.41790325 -1.125 13.625 C-1.29322266 12.00464844 -1.29322266 12.00464844 -1.46484375 10.3515625 C-1.56152344 9.3203125 -1.65820312 8.2890625 -1.7578125 7.2265625 C-1.8520752 6.27346191 -1.94633789 5.32036133 -2.04345703 4.33837891 C-2 2 -2 2 0 0 Z " fill="#C1EBF8" transform="translate(270,180)"/>
<path d="M0 0 C0 1.32 0 2.64 0 4 C0.66 4.33 1.32 4.66 2 5 C-1.96 5 -5.92 5 -10 5 C-9 2 -9 2 -7.25 0.8125 C-4.70039426 -0.10819096 -2.69076919 -0.14948718 0 0 Z " fill="#5CC1E7" transform="translate(230,296)"/>
<path d="M0 0 C2.83404585 0.11505742 5.66679619 0.24177725 8.5 0.375 C9.29148438 0.4059375 10.08296875 0.436875 10.8984375 0.46875 C16.18128612 0.72856223 20.90743869 1.56333706 26 3 C26 3.33 26 3.66 26 4 C17.05571013 4.58051881 8.70163476 2.81374025 0 1 C0 0.67 0 0.34 0 0 Z " fill="#5EBFE8" transform="translate(176,279)"/>
<path d="M0 0 C-0.33 0.99 -0.66 1.98 -1 3 C-2.32 3 -3.64 3 -5 3 C-5.0825 4.11375 -5.165 5.2275 -5.25 6.375 C-6 10 -6 10 -8.0625 11.4375 C-9.0215625 11.7159375 -9.0215625 11.7159375 -10 12 C-9.34 9.36 -8.68 6.72 -8 4 C-8.66 3.67 -9.32 3.34 -10 3 C-6.64781163 0.76520776 -4.01177204 0 0 0 Z " fill="#339CC1" transform="translate(288,245)"/>
<path d="M0 0 C-5.66748157 2.83374078 -10.69732561 3.63223832 -17 4 C-17 2.68 -17 1.36 -17 0 C-14.9174133 -0.19561869 -12.83388144 -0.38119313 -10.75 -0.5625 C-9.58984375 -0.66691406 -8.4296875 -0.77132813 -7.234375 -0.87890625 C-4.48128523 -0.98198087 -2.580018 -0.86213473 0 0 Z " fill="#47B4DF" transform="translate(273,299)"/>
<path d="M0 0 C1.46373047 0.16628906 1.46373047 0.16628906 2.95703125 0.3359375 C3.69308594 0.43132812 4.42914063 0.52671875 5.1875 0.625 C5.1875 0.955 5.1875 1.285 5.1875 1.625 C3.08429937 2.12904808 0.97990209 2.62810508 -1.125 3.125 C-2.88263672 3.54265625 -2.88263672 3.54265625 -4.67578125 3.96875 C-7.8125 4.625 -7.8125 4.625 -10.8125 4.625 C-10.8125 3.635 -10.8125 2.645 -10.8125 1.625 C-6.91531829 -0.24165742 -4.27165815 -0.51465761 0 0 Z " fill="#3196C8" transform="translate(247.8125,257.375)"/>
<path d="M0 0 C0.66 0.33 1.32 0.66 2 1 C-2.45877378 6.66384778 -2.45877378 6.66384778 -6.84765625 7.62109375 C-9.57390658 7.849747 -12.26464751 7.99026565 -15 8 C-13.6767128 5.3534256 -12.74278429 5.12524484 -10 4 C-7.94193559 3.47835199 -5.88197119 3.00147316 -3.8046875 2.5625 C-1.77272609 2.08250081 -1.77272609 2.08250081 0 0 Z " fill="#78B9D4" transform="translate(252,224)"/>
<path d="M0 0 C0 0.66 0 1.32 0 2 C1.32 2.66 2.64 3.32 4 4 C2.0625 4.5625 2.0625 4.5625 0 5 C-0.33 4.67 -0.66 4.34 -1 4 C-2.68183948 3.76712992 -4.3712416 3.58735834 -6.0625 3.4375 C-6.98160156 3.35371094 -7.90070313 3.26992188 -8.84765625 3.18359375 C-9.91306641 3.09271484 -9.91306641 3.09271484 -11 3 C-10 1 -10 1 -7.1875 -0.1875 C-4.14038924 -0.96421451 -2.86250637 -1.10096399 0 0 Z " fill="#1C7CA7" transform="translate(236,263)"/>
<path d="M0 0 C0.66 0.33 1.32 0.66 2 1 C1.71125 1.680625 1.4225 2.36125 1.125 3.0625 C-0.12597355 6.32893093 -1.07447955 9.62846123 -2 13 C-2.103125 12.360625 -2.20625 11.72125 -2.3125 11.0625 C-2.539375 10.381875 -2.76625 9.70125 -3 9 C-3.99 8.67 -4.98 8.34 -6 8 C-4.02 5.36 -2.04 2.72 0 0 Z " fill="#3099C2" transform="translate(249,231)"/>
<path d="M0 0 C1.65 0 3.3 0 5 0 C5.58168354 7.32921259 4.40020467 12.02638881 0 18 C-0.66 18.33 -1.32 18.66 -2 19 C-0.95902388 15.13351728 0.03698408 11.50538557 2 8 C2.66 8 3.32 8 4 8 C4 6.02 4 4.04 4 2 C2.35 2 0.7 2 -1 2 C-0.67 1.34 -0.34 0.68 0 0 Z " fill="#2FA2CA" transform="translate(256,226)"/>
<path d="M0 0 C1.32 0 2.64 0 4 0 C4 0.66 4 1.32 4 2 C4.61746094 1.98839844 5.23492187 1.97679687 5.87109375 1.96484375 C11.67525544 1.90300337 17.24338088 2.25721044 23 3 C18.97812012 5.89274248 14.98185429 4.83292338 10.375 4.1875 C9.21097656 4.04344727 9.21097656 4.04344727 8.0234375 3.89648438 C2.31676303 3.15838151 2.31676303 3.15838151 0 2 C0 1.34 0 0.68 0 0 Z " fill="#86C6D6" transform="translate(204,248)"/>
<path d="M0 0 C0.33 0 0.66 0 1 0 C1.62815399 6.90969384 0.07382455 11.35837024 -4 17 C-4.66 17.33 -5.32 17.66 -6 18 C-4.23536928 11.89262558 -2.30442525 5.92566493 0 0 Z " fill="#57B3D3" transform="translate(334,175)"/>
<path d="M0 0 C1.1446875 0.680625 1.1446875 0.680625 2.3125 1.375 C6.89672653 3.70577542 11.9658162 4.23860209 17 5 C17 5.33 17 5.66 17 6 C14.54101345 6.08076963 12.08466258 6.14037143 9.625 6.1875 C8.57699219 6.22520508 8.57699219 6.22520508 7.5078125 6.26367188 C5.4765625 6.29296875 5.4765625 6.29296875 2 6 C0 3 0 3 0 0 Z " fill="#9BCAD9" transform="translate(191,250)"/>
<path d="M0 0 C0.33 0.66 0.66 1.32 1 2 C2.32 1.67 3.64 1.34 5 1 C4.67 2.32 4.34 3.64 4 5 C1.03 5.66 -1.94 6.32 -5 7 C-4.67 5.68 -4.34 4.36 -4 3 C-3.01 2.67 -2.02 2.34 -1 2 C-0.67 1.34 -0.34 0.68 0 0 Z " fill="#3CABD1" transform="translate(271,246)"/>
<path d="M0 0 C2.97 0.495 2.97 0.495 6 1 C6 1.66 6 2.32 6 3 C7.32 3.33 8.64 3.66 10 4 C6.02549507 5.51553092 2.79518851 4.49888623 -1.25 3.5625 C-2.51328125 3.27503906 -3.7765625 2.98757812 -5.078125 2.69140625 C-6.04234375 2.46324219 -7.0065625 2.23507813 -8 2 C-4.90279155 1.12159004 -3.09354597 1.00564594 0 2 C0 1.34 0 0.68 0 0 Z " fill="#CAF1F6" transform="translate(18,235)"/>
<path d="M0 0 C-0.33 0.66 -0.66 1.32 -1 2 C-4.62138266 3.02273507 -8.06734756 3.10762232 -11.8125 3.0625 C-13.27623047 3.04896484 -13.27623047 3.04896484 -14.76953125 3.03515625 C-15.87361328 3.01775391 -15.87361328 3.01775391 -17 3 C-17 2.67 -17 2.34 -17 2 C-13.92382812 1.70703125 -13.92382812 1.70703125 -10.84765625 1.4140625 C-10.23792969 1.27742188 -9.62820312 1.14078125 -9 1 C-8.67 0.34 -8.34 -0.32 -8 -1 C-4.37673261 -2.2077558 -3.35853631 -1.54311128 0 0 Z " fill="#39B4E3" transform="translate(265,291)"/>
<path d="M0 0 C1.22589844 0.15275391 1.22589844 0.15275391 2.4765625 0.30859375 C3.41628906 0.43427734 3.41628906 0.43427734 4.375 0.5625 C2.375 2.5625 2.375 2.5625 0.31201172 2.78955078 C-0.92911377 2.77384033 -0.92911377 2.77384033 -2.1953125 2.7578125 C-3.09121094 2.75136719 -3.98710937 2.74492187 -4.91015625 2.73828125 C-5.84730469 2.72152344 -6.78445312 2.70476562 -7.75 2.6875 C-8.69488281 2.67847656 -9.63976562 2.66945313 -10.61328125 2.66015625 C-12.95077292 2.63654522 -15.28776123 2.60361516 -17.625 2.5625 C-17.625 2.2325 -17.625 1.9025 -17.625 1.5625 C-16.85414063 1.50191406 -16.08328125 1.44132812 -15.2890625 1.37890625 C-13.78472656 1.25322266 -13.78472656 1.25322266 -12.25 1.125 C-11.25226563 1.04378906 -10.25453125 0.96257812 -9.2265625 0.87890625 C-0.97222222 -0.125 -0.97222222 -0.125 0 0 Z " fill="#63B1CE" transform="translate(213.625,269.4375)"/>
<path d="M0 0 C-0.928125 0.8971875 -0.928125 0.8971875 -1.875 1.8125 C-4.13676954 4.00811144 -4.13676954 4.00811144 -6 7 C-6.33 6.34 -6.66 5.68 -7 5 C-8.32 5.33 -9.64 5.66 -11 6 C-11 5.01 -11 4.02 -11 3 C-7.14243493 0.84694043 -4.44870215 -0.39253254 0 0 Z " fill="#3D91AE" transform="translate(248,268)"/>
<path d="M0 0 C2.38564077 0.57584432 4.66682784 1.22227595 7 2 C7.33 2.99 7.66 3.98 8 5 C6.68 4.67 5.36 4.34 4 4 C3.34 5.32 2.68 6.64 2 8 C0 6 0 6 -0.125 2.875 C-0.08375 1.92625 -0.0425 0.9775 0 0 Z " fill="#64BDDF" transform="translate(158,238)"/>
<path d="M0 0 C1.2065625 0.0309375 1.2065625 0.0309375 2.4375 0.0625 C2.7675 1.3825 3.0975 2.7025 3.4375 4.0625 C0.79011084 5.5231285 -0.45698334 6.0625 -3.5625 6.0625 C-3.605221 4.39638095 -3.60313832 2.72867115 -3.5625 1.0625 C-2.5625 0.0625 -2.5625 0.0625 0 0 Z " fill="#64CFF4" transform="translate(149.5625,211.9375)"/>
<path d="M0 0 C2.475 0.495 2.475 0.495 5 1 C4.67 2.98 4.34 4.96 4 7 C3.01 7 2.02 7 1 7 C1.66 8.32 2.32 9.64 3 11 C2.01 11 1.02 11 0 11 C0 7.37 0 3.74 0 0 Z " fill="#A4E1F3" transform="translate(262,209)"/>
<path d="M0 0 C5.28 0 10.56 0 16 0 C16 0.33 16 0.66 16 1 C13.36 1 10.72 1 8 1 C8 1.66 8 2.32 8 3 C5.36 3 2.72 3 0 3 C0 2.01 0 1.02 0 0 Z " fill="#3AB9EF" transform="translate(232,294)"/>
<path d="M0 0 C0.103125 0.639375 0.20625 1.27875 0.3125 1.9375 C0.539375 2.618125 0.76625 3.29875 1 4 C1.99 4.33 2.98 4.66 4 5 C2.625 6.5 2.625 6.5 1 8 C0.34 8 -0.32 8 -1 8 C-1 8.66 -1 9.32 -1 10 C-1.66 10 -2.32 10 -3 10 C-3 8.02 -3 6.04 -3 4 C-2.01 3.67 -1.02 3.34 0 3 C0 2.01 0 1.02 0 0 Z " fill="#85D6F2" transform="translate(145,214)"/>
<path d="M0 0 C1.12438477 0.14985352 1.12438477 0.14985352 2.27148438 0.30273438 C4.11931482 0.54989641 5.9660266 0.80539611 7.8125 1.0625 C7.8125 1.3925 7.8125 1.7225 7.8125 2.0625 C1.5425 2.0625 -4.7275 2.0625 -11.1875 2.0625 C-11.1875 1.4025 -11.1875 0.7425 -11.1875 0.0625 C-7.28297658 -1.23900781 -3.98289691 -0.56004053 0 0 Z " fill="#4CBFF1" transform="translate(240.1875,291.9375)"/>
<path d="M0 0 C0.66 0.66 1.32 1.32 2 2 C0.41132134 3.58867866 -1.24689516 3.20794039 -3.4375 3.25 C-4.24058594 3.27578125 -5.04367188 3.3015625 -5.87109375 3.328125 C-6.57363281 3.21984375 -7.27617187 3.1115625 -8 3 C-8.66 2.01 -9.32 1.02 -10 0 C-6.25976024 -1.24674659 -3.83399823 -0.76679965 0 0 Z " fill="#57A4C0" transform="translate(224,269)"/>
<path d="M0 0 C0 0.66 0 1.32 0 2 C-0.92232422 2.27263672 -0.92232422 2.27263672 -1.86328125 2.55078125 C-2.67152344 2.80214844 -3.47976563 3.05351562 -4.3125 3.3125 C-5.51326172 3.67794922 -5.51326172 3.67794922 -6.73828125 4.05078125 C-9.09964573 5.04182023 -10.33879993 6.08074943 -12 8 C-12 5 -12 5 -9.9375 2.3125 C-6.34650802 -0.51445113 -4.45768233 -0.43702768 0 0 Z " fill="#44A9D1" transform="translate(261,224)"/>
<path d="M0 0 C1.2065625 0.0309375 1.2065625 0.0309375 2.4375 0.0625 C2.7675 1.0525 3.0975 2.0425 3.4375 3.0625 C2.83421875 3.25585938 2.2309375 3.44921875 1.609375 3.6484375 C0.81015625 3.90882813 0.0109375 4.16921875 -0.8125 4.4375 C-1.60140625 4.69273437 -2.3903125 4.94796875 -3.203125 5.2109375 C-5.42877958 6.01423667 -7.47181672 6.95961662 -9.5625 8.0625 C-8.58383662 6.91623678 -7.60455413 5.77050212 -6.625 4.625 C-6.07972656 3.98691406 -5.53445312 3.34882813 -4.97265625 2.69140625 C-2.69968929 0.06584608 -2.69968929 0.06584608 0 0 Z " fill="#78C9EA" transform="translate(257.5625,218.9375)"/>
<path d="M0 0 C0.93045933 2.55144824 1.08564091 3.74006478 0.22265625 6.359375 C-0.16019531 7.14828125 -0.54304687 7.9371875 -0.9375 8.75 C-1.31777344 9.54921875 -1.69804687 10.3484375 -2.08984375 11.171875 C-2.39019531 11.77515625 -2.69054687 12.3784375 -3 13 C-3.99 13 -4.98 13 -6 13 C-4.58707905 8.1725201 -2.57025846 4.2837641 0 0 Z " fill="#4DB2D1" transform="translate(243,246)"/>
<path d="M0 0 C0.12375 0.639375 0.2475 1.27875 0.375 1.9375 C0.684375 2.9584375 0.684375 2.9584375 1 4 C1.66 4.33 2.32 4.66 3 5 C2.01 6.485 2.01 6.485 1 8 C-0.98 7.34 -2.96 6.68 -5 6 C-4.360625 5.38125 -3.72125 4.7625 -3.0625 4.125 C-0.96116416 2.17402388 -0.96116416 2.17402388 0 0 Z M5 1 C5.33 1.99 5.66 2.98 6 4 C5.01 4 4.02 4 3 4 C3 3.34 3 2.68 3 2 C3.66 1.67 4.32 1.34 5 1 Z " fill="#92DBF9" transform="translate(141,220)"/>
<path d="M0 0 C3.67420866 0.30618405 4.78135513 0.75771784 7.3125 3.5625 C8.1478125 4.7690625 8.1478125 4.7690625 9 6 C8.34 7.32 7.68 8.64 7 10 C7 8.68 7 7.36 7 6 C5.68 5.67 4.36 5.34 3 5 C3 4.01 3 3.02 3 2 C2.01 2 1.02 2 0 2 C0 1.34 0 0.68 0 0 Z " fill="#7EC5D6" transform="translate(149,210)"/>
<path d="M0 0 C3.63 0 7.26 0 11 0 C11 0.66 11 1.32 11 2 C11.66 2 12.32 2 13 2 C12.67 2.99 12.34 3.98 12 5 C11.67 4.67 11.34 4.34 11 4 C9.00432121 3.80686979 7.00790481 3.61679037 5.0078125 3.4765625 C3 3 3 3 0 0 Z " fill="#3A9ECB" transform="translate(211,280)"/>
<path d="M0 0 C4.62 0.66 9.24 1.32 14 2 C14 2.66 14 3.32 14 4 C9.71 3.67 5.42 3.34 1 3 C0.67 2.01 0.34 1.02 0 0 Z " fill="#ABD8DD" transform="translate(16,238)"/>
<path d="M0 0 C2.475 0.495 2.475 0.495 5 1 C5 4.3 5 7.6 5 11 C4.67 10.01 4.34 9.02 4 8 C3.34 8 2.68 8 2 8 C0.74335022 5.09399739 0 3.20395416 0 0 Z " fill="#72BDD5" transform="translate(330,120)"/>
<path d="M0 0 C1.11375 0.185625 2.2275 0.37125 3.375 0.5625 C6.82568861 1.31680657 6.82568861 1.31680657 9 0 C9 1.65 9 3.3 9 5 C6.69 5 4.38 5 2 5 C1.34 3.35 0.68 1.7 0 0 Z " fill="#D5F0F6" transform="translate(121,216)"/>
<path d="M0 0 C0.66 0.33 1.32 0.66 2 1 C1.625 2.9375 1.625 2.9375 1 5 C-1.40545638 6.20272819 -2.94996953 6.10071472 -5.625 6.0625 C-6.85089844 6.04896484 -6.85089844 6.04896484 -8.1015625 6.03515625 C-9.04128906 6.01775391 -9.04128906 6.01775391 -10 6 C-10 5.67 -10 5.34 -10 5 C-9.0925 4.731875 -8.185 4.46375 -7.25 4.1875 C-4.28528037 3.10423706 -2.3830246 2.01640543 0 0 Z " fill="#AACFDA" transform="translate(116,271)"/>
<path d="M0 0 C2.08304538 -0.05418326 4.16649768 -0.09287551 6.25 -0.125 C7.99023438 -0.15980469 7.99023438 -0.15980469 9.765625 -0.1953125 C13 0 13 0 17 2 C11.06 2.495 11.06 2.495 5 3 C5 2.67 5 2.34 5 2 C3.35 1.67 1.7 1.34 0 1 C0 0.67 0 0.34 0 0 Z " fill="#57B2D4" transform="translate(231,286)"/>
<path d="M0 0 C0.33 0.66 0.66 1.32 1 2 C1.66 2 2.32 2 3 2 C3.82638376 4.89234315 4 6.88742431 4 10 C3.01 9.67 2.02 9.34 1 9 C0.67 6.03 0.34 3.06 0 0 Z " fill="#BEE8F5" transform="translate(164,231)"/>
<path d="M0 0 C1.64666203 0.1135629 3.29236082 0.24117381 4.9375 0.375 C5.85402344 0.44460937 6.77054687 0.51421875 7.71484375 0.5859375 C8.84599609 0.79089844 8.84599609 0.79089844 10 1 C10.33 1.66 10.66 2.32 11 3 C7.37 3 3.74 3 0 3 C0 2.01 0 1.02 0 0 Z " fill="#A1DAEE" transform="translate(0,237)"/>
<path d="M0 0 C2.97 0.495 2.97 0.495 6 1 C6.66 2.98 7.32 4.96 8 7 C7.01 7 6.02 7 5 7 C4.67 6.01 4.34 5.02 4 4 C3.34 4 2.68 4 2 4 C1.34 2.68 0.68 1.36 0 0 Z " fill="#86C9E4" transform="translate(321,112)"/>
<path d="M0 0 C3.3 0.33 6.6 0.66 10 1 C10 1.66 10 2.32 10 3 C5.71 3 1.42 3 -3 3 C-2.01 2.67 -1.02 2.34 0 2 C0 1.34 0 0.68 0 0 Z " fill="#BFDDE8" transform="translate(30,240)"/>
<path d="M0 0 C0.66 0.33 1.32 0.66 2 1 C-1.3 3.31 -4.6 5.62 -8 8 C-8.66 7.67 -9.32 7.34 -10 7 C-10 6.34 -10 5.68 -10 5 C-9.278125 4.731875 -8.55625 4.46375 -7.8125 4.1875 C-4.94366924 3.06484842 -4.94366924 3.06484842 -2.3125 1.3125 C-1.1678125 0.6628125 -1.1678125 0.6628125 0 0 Z " fill="#9ACBDE" transform="translate(219,235)"/>
<path d="M0 0 C0.66 0.33 1.32 0.66 2 1 C1.01 3.97 0.02 6.94 -1 10 C-2.98 10 -4.96 10 -7 10 C-5.68 9.67 -4.36 9.34 -3 9 C-2.814375 7.329375 -2.814375 7.329375 -2.625 5.625 C-2 2 -2 2 0 0 Z " fill="#D0F2F8" transform="translate(139,214)"/>
<path d="M0 0 C1.75032844 0.14183696 3.50025534 0.28863429 5.25 0.4375 C6.71179688 0.55931641 6.71179688 0.55931641 8.203125 0.68359375 C10.56461753 0.95074584 12.71901065 1.35371968 15 2 C14.67 2.99 14.34 3.98 14 5 C13.0409375 4.566875 13.0409375 4.566875 12.0625 4.125 C8.11589708 2.6752275 4.1125393 1.84221938 0 1 C0 0.67 0 0.34 0 0 Z " fill="#4EB6E4" transform="translate(194,280)"/>
<path d="M0 0 C2.31 0.66 4.62 1.32 7 2 C6.67 2.99 6.34 3.98 6 5 C4.35 5.33 2.7 5.66 1 6 C0.67 4.02 0.34 2.04 0 0 Z " fill="#87BED8" transform="translate(150,234)"/>
<path d="M0 0 C0 1.65 0 3.3 0 5 C-2.31 5.33 -4.62 5.66 -7 6 C-5.96849913 3.42124782 -5.35028898 2.21229635 -2.9375 0.75 C-1 0 -1 0 0 0 Z " fill="#8FE4FB" transform="translate(154,215)"/>
<path d="M0 0 C0.66 0 1.32 0 2 0 C0.49776416 4.20626034 -2.28550034 5.73900021 -6 8 C-6 6.68 -6 5.36 -6 4 C-3.5625 2.3125 -3.5625 2.3125 -1 1 C-0.67 0.67 -0.34 0.34 0 0 Z " fill="#49A1BD" transform="translate(246,232)"/>
<path d="M0 0 C-1.77444972 2.24606427 -2.58352485 2.95081002 -5.48046875 3.29296875 C-6.37378906 3.25816406 -7.26710937 3.22335938 -8.1875 3.1875 C-9.08855469 3.16042969 -9.98960937 3.13335937 -10.91796875 3.10546875 C-11.94857422 3.05326172 -11.94857422 3.05326172 -13 3 C-13 2.67 -13 2.34 -13 2 C-8.46298506 0.54815522 -4.81938524 -0.23509196 0 0 Z " fill="#AEDAE8" transform="translate(245,225)"/>
<path d="M0 0 C0.99 0.66 1.98 1.32 3 2 C1.37787941 2.52973311 -0.24781584 3.04853107 -1.875 3.5625 C-2.77992188 3.85253906 -3.68484375 4.14257812 -4.6171875 4.44140625 C-7 5 -7 5 -9 4 C-7.67661368 3.31379969 -6.34050052 2.65213539 -5 2 C-4.154375 1.5875 -3.30875 1.175 -2.4375 0.75 C-1.633125 0.5025 -0.82875 0.255 0 0 Z " fill="#C0E7F2" transform="translate(239,223)"/>
<path d="M0 0 C0.91007812 0.10183594 1.82015625 0.20367187 2.7578125 0.30859375 C3.45648438 0.39238281 4.15515625 0.47617187 4.875 0.5625 C2.05171911 3.38578089 -0.21041907 3.35646942 -4.125 3.5625 C-6.0625 2.125 -6.0625 2.125 -7.125 0.5625 C-4.50184968 -0.74907516 -2.89466564 -0.33399988 0 0 Z " fill="#C5E8F0" transform="translate(43.125,257.4375)"/>
<path d="M0 0 C0.66 0 1.32 0 2 0 C4.21747812 2.30276574 4.96760006 3.52480092 5.1875 6.75 C5.125625 7.4925 5.06375 8.235 5 9 C4.34 9 3.68 9 3 9 C0 3.375 0 3.375 0 0 Z " fill="#D2F6FD" transform="translate(162,224)"/>
<path d="M0 0 C2.475 0.495 2.475 0.495 5 1 C5 1.66 5 2.32 5 3 C6.32 3.33 7.64 3.66 9 4 C6.36 4 3.72 4 1 4 C0.67 2.68 0.34 1.36 0 0 Z " fill="#B0E0E8" transform="translate(127,221)"/>
<path d="M0 0 C1.65 0.33 3.3 0.66 5 1 C4.67 1.99 4.34 2.98 4 4 C2.35 3.67 0.7 3.34 -1 3 C-0.67 2.01 -0.34 1.02 0 0 Z " fill="#056BA0" transform="translate(236,262)"/>
<path d="M0 0 C0.66 0 1.32 0 2 0 C2 0.66 2 1.32 2 2 C3.65 2.33 5.3 2.66 7 3 C4 5 4 5 1.875 4.8125 C1.25625 4.544375 0.6375 4.27625 0 4 C-0.33 3.01 -0.66 2.02 -1 1 C-0.67 0.67 -0.34 0.34 0 0 Z " fill="#B3D6E3" transform="translate(169,240)"/>
<path d="M0 0 C2.64 0 5.28 0 8 0 C8 1.98 8 3.96 8 6 C7.67 6 7.34 6 7 6 C7 4.35 7 2.7 7 1 C5.8553125 1.495 5.8553125 1.495 4.6875 2 C2 3 2 3 -1 3 C-0.67 2.01 -0.34 1.02 0 0 Z " fill="#2396C2" transform="translate(252,228)"/>
<path d="M0 0 C0 2.97 0 5.94 0 9 C-0.99 8.34 -1.98 7.68 -3 7 C-3.1875 3.875 -3.1875 3.875 -3 1 C-1 0 -1 0 0 0 Z " fill="#CEF3FD" transform="translate(156,223)"/>
<path d="M0 0 C0.66 0 1.32 0 2 0 C1.75 2.875 1.75 2.875 1 6 C-1.0625 7.375 -1.0625 7.375 -3 8 C-2.690625 7.236875 -2.38125 6.47375 -2.0625 5.6875 C-1.32106407 3.81210323 -0.63771783 1.91315348 0 0 Z " fill="#AAE6F8" transform="translate(114,277)"/>
<path d="M0 0 C-3.465 1.485 -3.465 1.485 -7 3 C-7.66 2.34 -8.32 1.68 -9 1 C-5.57367167 -0.61798838 -3.61944899 -1.34053666 0 0 Z " fill="#6DB8CC" transform="translate(232,258)"/>
<path d="M0 0 C0.66 0 1.32 0 2 0 C2.1875 2.875 2.1875 2.875 2 6 C1.01 6.66 0.02 7.32 -1 8 C-0.67 5.36 -0.34 2.72 0 0 Z " fill="#6EC4E4" transform="translate(333,192)"/>
<path d="M0 0 C0.33 0.66 0.66 1.32 1 2 C-0.2739589 4.03833424 -1.61061923 6.03852126 -3 8 C-3.66 8 -4.32 8 -5 8 C-5 5 -5 5 -2.5 2.3125 C-1.675 1.549375 -0.85 0.78625 0 0 Z " fill="#ABE0F1" transform="translate(334,168)"/>
<path d="M0 0 C1.32 0 2.64 0 4 0 C4 1.65 4 3.3 4 5 C3.01 5 2.02 5 1 5 C0.67 3.35 0.34 1.7 0 0 Z " fill="#9CD9F2" transform="translate(152,278)"/>
<path d="M0 0 C0.66 0 1.32 0 2 0 C2.25 2.3125 2.25 2.3125 2 5 C0 6.8125 0 6.8125 -2 8 C-1.34 6.35 -0.68 4.7 0 3 C-0.66 2.67 -1.32 2.34 -2 2 C-1.34 2 -0.68 2 0 2 C0 1.34 0 0.68 0 0 Z " fill="#2283AD" transform="translate(232,272)"/>
<path d="M0 0 C1.32 0 2.64 0 4 0 C4 1.65 4 3.3 4 5 C3.01 5.495 3.01 5.495 2 6 C1.87625 5.360625 1.7525 4.72125 1.625 4.0625 C1.315625 3.0415625 1.315625 3.0415625 1 2 C0.34 1.67 -0.32 1.34 -1 1 C-0.67 0.67 -0.34 0.34 0 0 Z " fill="#1B8EB7" transform="translate(276,249)"/>
<path d="M0 0 C1.9375 0.8125 1.9375 0.8125 4 2 C4.33 2.99 4.66 3.98 5 5 C3.68 5.33 2.36 5.66 1 6 C0.67 4.02 0.34 2.04 0 0 Z " fill="#8CC2D7" transform="translate(165,240)"/>
<path d="M0 0 C0.66 0 1.32 0 2 0 C1.875 1.75 1.875 1.75 1 4 C-2.0625 6.25 -2.0625 6.25 -5 8 C-3.63055898 5.05043472 -2.12169591 2.47531189 0 0 Z " fill="#A1D6E6" transform="translate(126,241)"/>
<path d="M0 0 C0.66 0 1.32 0 2 0 C2.33 3.3 2.66 6.6 3 10 C0 7 0 7 -0.1875 3.3125 C-0.125625 2.219375 -0.06375 1.12625 0 0 Z " fill="#4FAFCC" transform="translate(262,233)"/>
<path d="M0 0 C0.99 0 1.98 0 3 0 C3.66 2.97 4.32 5.94 5 9 C2.67527795 6.14693203 1.2491742 3.45925163 0 0 Z " fill="#CFF8F8" transform="translate(157,215)"/>
</svg>
